<svg width="16" height="20" viewBox="0 0 16 20" fill="none" xmlns="http://www.w3.org/2000/svg">
<path d="M1.08039 20H15.0589C15.1441 19.9989 15.2255 19.9645 15.2858 19.9043C15.346 19.844 15.3804 19.7626 15.3815 19.6774V6.23656C15.3822 6.18083 15.3681 6.1259 15.3406 6.07742L13.2309 2.3871V0.322581C13.2309 0.237027 13.1969 0.154977 13.1364 0.0944817C13.076 0.0339861 12.9939 0 12.9083 0H3.23093C3.14538 0 3.06333 0.0339861 3.00283 0.0944817C2.94234 0.154977 2.90835 0.237027 2.90835 0.322581V2.3871L0.800823 6.07742C0.774524 6.12726 0.759822 6.18239 0.757812 6.23871V19.6774C0.757813 19.763 0.791799 19.845 0.852294 19.9055C0.91279 19.966 0.994839 20 1.08039 20ZM12.5858 3.68817V16.8817L11.0804 18.7634V6.32258L12.5858 3.68817ZM11.4288 19.3548L12.9083 17.5054L14.3879 19.3548H11.4288ZM14.7363 6.32258V18.757L13.2309 16.8753V3.68817L14.7363 6.32258ZM3.55351 0.645161H12.5858V2.15054H3.55351V0.645161ZM3.41803 2.7957H12.3535L10.5707 5.91398H1.63738L3.41803 2.7957ZM10.4352 6.55914V19.3548H1.40297V6.55914H10.4352ZM2.04813 13.7634V8.3871C2.04813 8.30154 2.08212 8.21949 2.14262 8.159C2.20311 8.0985 2.28516 8.06452 2.37072 8.06452C2.45627 8.06452 2.53832 8.0985 2.59881 8.159C2.65931 8.21949 2.6933 8.30154 2.6933 8.3871V13.7634C2.6933 13.849 2.65931 13.931 2.59881 13.9915C2.53832 14.052 2.45627 14.086 2.37072 14.086C2.28516 14.086 2.20311 14.052 2.14262 13.9915C2.08212 13.931 2.04813 13.849 2.04813 13.7634ZM2.04813 16.4516V14.9699C2.04813 14.8843 2.08212 14.8023 2.14262 14.7418C2.20311 14.6813 2.28516 14.6473 2.37072 14.6473C2.45627 14.6473 2.53832 14.6813 2.59881 14.7418C2.65931 14.8023 2.6933 14.8843 2.6933 14.9699V16.4516C2.6933 16.5372 2.65931 16.6192 2.59881 16.6797C2.53832 16.7402 2.45627 16.7742 2.37072 16.7742C2.28516 16.7742 2.20311 16.7402 2.14262 16.6797C2.08212 16.6192 2.04813 16.5372 2.04813 16.4516Z" fill="black"/>
</svg>
