<svg width="29" height="22" viewBox="0 0 29 22" fill="none" xmlns="http://www.w3.org/2000/svg">
<path d="M10.4056 14.5214C10.4056 13.5063 10.2142 12.4995 9.85182 11.6099C9.33707 10.3458 9.21951 8.94899 9.51216 7.57041C9.60758 7.11955 9.65599 6.65209 9.65599 6.18021C9.65599 3.32401 7.88269 1 5.70279 1C3.52289 1 1.74932 3.32401 1.74932 6.18021C1.74932 6.65209 1.79772 7.1201 1.89343 7.57041C2.18579 8.94899 2.06824 10.3458 1.55376 11.6099C1.19141 12.4989 1 13.5057 1 14.5214C1 17.9292 3.10965 20.7018 5.70279 20.7018C8.29594 20.7018 10.4056 17.9292 10.4056 14.5214ZM1.56648 14.5214C1.56648 13.5782 1.74351 12.6455 2.0782 11.8234C2.63583 10.4543 2.76362 8.94291 2.44774 7.45313C2.36005 7.04099 2.3158 6.61281 2.3158 6.18021C2.3158 3.63602 3.83517 1.56648 5.70279 1.56648C7.57013 1.56648 9.08951 3.63602 9.08951 6.18021C9.08951 6.61226 9.04525 7.04099 8.95785 7.45313C8.64169 8.94291 8.76948 10.4543 9.32739 11.8234C9.66208 12.6461 9.8391 13.5788 9.8391 14.5214C9.8391 17.6172 7.98365 20.1353 5.70279 20.1353C3.42193 20.1353 1.56648 17.6172 1.56648 14.5214Z" fill="black" stroke="black" stroke-width="0.2"/>
<path d="M5.95071 4.6019C6.33519 3.88661 5.96869 3.21336 5.72113 2.95722C5.6127 2.84492 5.43374 2.84216 5.32061 2.95059C5.20831 3.05901 5.20527 3.2388 5.31397 3.35111C5.31812 3.35553 5.73856 3.79975 5.45172 4.33415C5.37759 4.4719 5.42932 4.64339 5.56706 4.71752C5.60994 4.7402 5.65585 4.75127 5.70094 4.75127C5.8019 4.75127 5.89954 4.69705 5.95071 4.6019Z" fill="black"/>
<path d="M6.62261 7.54064C6.54848 7.67839 6.60021 7.84988 6.73795 7.92401C6.78055 7.94669 6.82647 7.95775 6.87183 7.95775C6.97279 7.95775 7.07043 7.90354 7.1216 7.80839C7.50608 7.09365 7.13958 6.41985 6.8923 6.16371C6.78359 6.05252 6.60657 6.0492 6.49371 6.15652C6.38114 6.26384 6.37671 6.44253 6.48348 6.55593C6.50063 6.57474 6.90502 7.01509 6.62261 7.54064Z" fill="black"/>
<path d="M6.46245 13.4217C6.38832 13.5595 6.44005 13.731 6.5778 13.8051C6.62039 13.8278 6.66631 13.8388 6.71167 13.8388C6.81263 13.8388 6.91027 13.7846 6.96144 13.6895C7.34592 12.9747 6.97942 12.3009 6.73214 12.0448C6.62344 11.9336 6.44641 11.9297 6.33356 12.0376C6.22098 12.1449 6.21655 12.3236 6.32332 12.437C6.34047 12.4558 6.74486 12.8962 6.46245 13.4217Z" fill="black"/>
<path d="M3.54829 13.979C3.43572 14.0863 3.43157 14.265 3.53806 14.3784C3.55549 14.3972 3.95988 14.8376 3.67719 15.3626C3.60306 15.5003 3.65479 15.6724 3.79253 15.7465C3.83513 15.7692 3.88105 15.7802 3.92641 15.7802C4.02737 15.7802 4.12501 15.726 4.17618 15.6314C4.56093 14.9161 4.19416 14.2423 3.9466 13.9862C3.83845 13.875 3.66087 13.8711 3.54829 13.979Z" fill="black"/>
<path d="M3.86749 5.49941C3.75519 5.60784 3.75214 5.78763 3.86085 5.89993C3.865 5.90436 4.28543 6.34858 3.9986 6.88298C3.92447 7.02073 3.97619 7.19222 4.11394 7.26635C4.15681 7.28903 4.20273 7.30009 4.24781 7.30009C4.34877 7.30009 4.44641 7.24588 4.49759 7.15073C4.88206 6.43544 4.51556 5.76219 4.26801 5.50605C4.15958 5.39375 3.98034 5.39099 3.86749 5.49941Z" fill="black"/>
<path d="M6.16317 16.8472C6.18032 16.866 6.58471 17.3063 6.3023 17.8319C6.22817 17.9696 6.27989 18.1411 6.41764 18.2152C6.46024 18.2379 6.50615 18.249 6.55152 18.249C6.65248 18.249 6.75012 18.1948 6.80129 18.0996C7.18577 17.3849 6.81927 16.7111 6.57198 16.4549C6.46328 16.3437 6.28598 16.3399 6.1734 16.4477C6.06082 16.5551 6.0564 16.7338 6.16317 16.8472Z" fill="black"/>
<path d="M24.7186 5.04704C23.5143 5.21964 22.3177 5.84753 21.3499 6.81564C21.0161 7.14977 20.7198 7.51434 20.4687 7.90047C19.7005 9.08267 18.6298 9.98716 17.3724 10.5166C16.4872 10.8889 15.64 11.4653 14.922 12.1839C12.5122 14.5937 12.0434 18.0462 13.8769 19.8796C14.6315 20.6341 15.6599 20.9987 16.7771 20.9987C18.3751 20.9987 20.1544 20.253 21.5726 18.8346C22.2909 18.1165 22.8673 17.269 23.2399 16.3844C23.7693 15.127 24.6738 14.056 25.8558 13.2876C26.2424 13.0364 26.6073 12.7399 26.9406 12.4069C27.9087 11.4388 28.5369 10.2427 28.7095 9.03786C28.8862 7.80311 28.5662 6.7061 27.8083 5.94821C27.0504 5.18977 25.9526 4.87168 24.7186 5.04704ZM28.1485 8.95765C27.9933 10.0419 27.4222 11.1245 26.5401 12.0064C26.2347 12.3117 25.9006 12.5828 25.5471 12.8129C24.2697 13.6433 23.2914 14.8023 22.7177 16.1642C22.3733 16.9824 21.8389 17.7669 21.1721 18.434C20.1013 19.505 18.7858 20.1988 17.4684 20.3874C16.1816 20.57 15.0478 20.2491 14.2775 19.479C13.5074 18.709 13.1849 17.5755 13.3691 16.2882C13.558 14.9704 14.2517 13.6555 15.3225 12.5845C15.9894 11.9173 16.7741 11.3829 17.592 11.0388C18.9545 10.4651 20.1135 9.48651 20.9436 8.20916C21.1732 7.85622 21.4448 7.52208 21.7504 7.21616C22.6322 6.33435 23.7151 5.76289 24.7991 5.60799C24.9933 5.58033 25.1828 5.5665 25.3673 5.5665C26.1838 5.5665 26.895 5.83591 27.4078 6.34873C28.0365 6.97717 28.2995 7.90379 28.1485 8.95765Z" fill="black" stroke="black" stroke-width="0.2"/>
<path d="M26.1617 7.06055C26.1601 7.06055 26.1584 7.06055 26.1568 7.06055C26.0024 7.06055 25.8763 7.18391 25.8735 7.33881C25.8735 7.34489 25.8564 7.95674 25.2761 8.13155C25.1261 8.17636 25.0412 8.33458 25.0863 8.4845C25.1234 8.60675 25.2357 8.68586 25.3577 8.68586C25.3845 8.68586 25.4121 8.68199 25.4393 8.67369C26.2168 8.43969 26.4339 7.70448 26.44 7.34877C26.4428 7.19221 26.318 7.06331 26.1617 7.06055Z" fill="black"/>
<path d="M24.7265 10.1543C24.5489 10.162 24.4413 10.2743 24.4363 10.4298C24.4355 10.4547 24.4103 11.0521 23.8386 11.2242C23.6886 11.269 23.6037 11.4272 23.6488 11.5766C23.6859 11.6994 23.7982 11.7785 23.9202 11.7785C23.947 11.7785 23.9746 11.7746 24.0018 11.7663C24.7796 11.5323 24.9967 10.7971 25.0028 10.4414C25.0053 10.2854 24.8819 10.1582 24.7265 10.1543Z" fill="black"/>
<path d="M20.453 14.2012C20.4505 14.2012 20.4483 14.2012 20.4461 14.2012C20.2934 14.2012 20.1678 14.3234 20.1629 14.4767C20.162 14.5016 20.1369 15.099 19.5651 15.2711C19.4152 15.3159 19.3303 15.4741 19.3754 15.6235C19.4124 15.7463 19.5247 15.8254 19.6467 15.8254C19.6735 15.8254 19.7012 15.8215 19.7283 15.8132C20.5061 15.5792 20.7233 14.844 20.7293 14.4883C20.7318 14.3323 20.6085 14.205 20.453 14.2012Z" fill="black"/>
<path d="M16.303 15.2278C16.3298 15.2278 16.3575 15.2239 16.3846 15.2156C17.1624 14.9816 17.3792 14.2464 17.3853 13.8907C17.3878 13.7341 17.2633 13.6052 17.1068 13.6025C16.9461 13.5892 16.8216 13.7247 16.8188 13.8807C16.8188 13.8874 16.8017 14.4987 16.2214 14.6735C16.0715 14.7183 15.9865 14.8765 16.0316 15.0259C16.0687 15.1487 16.181 15.2278 16.303 15.2278Z" fill="black"/>
<path d="M23.3297 7.83105C23.1867 7.81722 23.0445 7.95276 23.0415 8.10931C23.0415 8.1154 23.0243 8.72724 22.444 8.90206C22.2941 8.94687 22.2092 9.10508 22.2543 9.255C22.2913 9.37726 22.4036 9.45637 22.5256 9.45637C22.5525 9.45637 22.5801 9.45249 22.6072 9.4442C23.3848 9.21019 23.6019 8.47498 23.608 8.11927C23.6107 7.96271 23.486 7.83382 23.3297 7.83105Z" fill="black"/>
<path d="M17.2225 17.207C17.2201 17.207 17.2178 17.207 17.2156 17.207C17.0629 17.207 16.9374 17.3293 16.9324 17.4825C16.9316 17.5074 16.9064 18.1049 16.3347 18.2769C16.1847 18.3217 16.0998 18.48 16.1449 18.6293C16.182 18.7521 16.2943 18.8312 16.4162 18.8312C16.4431 18.8312 16.4707 18.8274 16.4978 18.8191C17.2757 18.5851 17.4928 17.8499 17.4989 17.4941C17.5014 17.3381 17.378 17.2109 17.2225 17.207Z" fill="black"/>
</svg>
