<svg width="21" height="20" viewBox="0 0 21 20" fill="none" xmlns="http://www.w3.org/2000/svg">
<path d="M1.94873 18.9057C1.7644 18.9063 1.58178 18.8702 1.41153 18.7995C0.346502 18.3576 0.0654089 16.6773 0.771265 14.9751C1.41778 13.4135 3.3011 11.5301 3.38075 11.4505C3.41285 11.4196 3.45118 11.396 3.49317 11.3811C3.53516 11.3663 3.57984 11.3606 3.62421 11.3644C3.66858 11.3683 3.71161 11.3816 3.75042 11.4034C3.78923 11.4253 3.82292 11.4552 3.84923 11.4911C3.92107 11.5942 5.60919 14.0365 4.56446 16.5539C3.98041 17.9781 2.90913 18.9057 1.94873 18.9057ZM3.54784 12.1782C3.00283 12.7591 1.80819 14.1099 1.34907 15.2125C0.796251 16.5445 0.933674 17.9219 1.65202 18.2201C2.37037 18.5184 3.44321 17.6439 3.99447 16.3118C4.70188 14.6128 3.93668 12.8841 3.54784 12.1782Z" fill="black"/>
<path d="M6.55429 17.584C5.46896 17.584 4.60694 17.153 4.36802 16.4003C4.05101 15.343 5.12228 14.1094 6.79947 13.5971C9.28871 12.8319 11.4531 14.6575 11.5437 14.7356C11.5785 14.7649 11.6065 14.8015 11.6257 14.8427C11.6449 14.884 11.6549 14.929 11.6549 14.9745C11.6549 15.02 11.6449 15.065 11.6257 15.1063C11.6065 15.1475 11.5785 15.1841 11.5437 15.2134C11.4609 15.2821 9.49796 16.8969 7.96288 17.3685C7.50666 17.5099 7.03192 17.5825 6.55429 17.584ZM8.0316 14.0328C7.67595 14.0321 7.32221 14.0848 6.98218 14.189C5.67822 14.5903 4.75842 15.5179 4.97237 16.2191C5.18631 16.9203 6.46997 17.1686 7.77393 16.7688C8.84833 16.4393 10.2179 15.4461 10.8253 14.9776C10.3241 14.6341 9.26216 14.0328 8.0316 14.0328Z" fill="black"/>
<path d="M5.47549 14.6724C5.30032 14.6734 5.12671 14.6394 4.96483 14.5724C4.45731 14.3616 4.12468 13.8525 4.02786 13.1373C3.9495 12.4033 4.06416 11.6615 4.36048 10.9854C4.96483 9.53774 6.71854 7.77154 6.7935 7.69658C6.8256 7.66571 6.86393 7.64206 6.90592 7.62722C6.94791 7.61238 6.99259 7.6067 7.03696 7.61054C7.08133 7.61439 7.12436 7.62768 7.16318 7.64952C7.20199 7.67136 7.23568 7.70125 7.26199 7.73719C7.32914 7.83244 8.90794 10.1155 7.9288 12.4705C7.66032 13.1561 7.21791 13.7599 6.64515 14.2226C6.3144 14.4955 5.90385 14.6534 5.47549 14.6724ZM6.95747 8.42586C6.44213 8.98024 5.35524 10.2155 4.93516 11.2243C4.68403 11.7985 4.58662 12.4282 4.65251 13.0514C4.69155 13.3325 4.80867 13.8322 5.21313 13.9884C5.61759 14.1445 6.05017 13.8916 6.2766 13.7198C6.76464 13.3251 7.1414 12.81 7.36974 12.2253C8.00376 10.6793 7.32133 9.09893 6.95591 8.42899L6.95747 8.42586Z" fill="black"/>
<path d="M9.38649 14.1372C9.13271 14.1389 8.8796 14.1111 8.63222 14.0544C7.96853 13.8983 7.52034 13.5375 7.3673 13.0394C7.21427 12.5412 7.38448 11.9915 7.8436 11.4887C8.32732 10.992 8.93237 10.6302 9.59887 10.4392C11.8851 9.73651 13.8746 11.4137 13.9574 11.4855C13.9922 11.5149 14.0202 11.5514 14.0394 11.5927C14.0586 11.634 14.0686 11.6789 14.0686 11.7245C14.0686 11.77 14.0586 11.815 14.0394 11.8562C14.0202 11.8975 13.9922 11.9341 13.9574 11.9634C13.8809 12.0259 12.0834 13.5047 10.678 13.9357C10.2598 14.0666 9.82459 14.1345 9.38649 14.1372ZM9.78158 11.0373C9.22157 11.1956 8.71243 11.497 8.30428 11.9119C8.12782 12.1039 7.84985 12.4834 7.96385 12.8488C8.07785 13.2143 8.52135 13.3798 8.77589 13.4391C9.34797 13.5539 9.9401 13.5173 10.4937 13.3329C11.4541 13.0378 12.68 12.1602 13.2421 11.7245C12.6425 11.3231 11.2573 10.5782 9.78627 11.0295L9.78158 11.0373Z" fill="black"/>
<path d="M8.86959 11.2835C8.71691 11.2841 8.56563 11.2544 8.42453 11.1961C7.56095 10.8369 7.33139 9.49233 7.89045 8.13528C8.4011 6.91252 9.86904 5.43678 9.9315 5.37432C9.9636 5.34345 10.0019 5.3198 10.0439 5.30496C10.0859 5.29012 10.1306 5.28443 10.175 5.28828C10.2193 5.29212 10.2624 5.30541 10.3012 5.32725C10.34 5.3491 10.3737 5.37899 10.4 5.41492C10.4578 5.49612 11.7898 7.42317 10.9622 9.41425C10.7332 9.99598 10.3565 10.5079 9.86904 10.8994C9.58606 11.1319 9.23546 11.2666 8.86959 11.2835ZM10.0939 6.10828C9.65041 6.5877 8.80088 7.5684 8.46669 8.37264C8.01538 9.46578 8.20902 10.4277 8.66346 10.6183C8.88833 10.712 9.19285 10.6323 9.50049 10.3996C9.89942 10.0753 10.2072 9.65287 10.3937 9.17376C10.8997 7.94632 10.3984 6.69233 10.0923 6.10984L10.0939 6.10828Z" fill="black"/>
<path d="M12.1013 11.0304C11.8816 11.0319 11.6626 11.0078 11.4485 10.9586C10.8676 10.8212 10.474 10.5026 10.3382 10.0638C10.2023 9.62498 10.3507 9.13932 10.7536 8.7005C11.1706 8.27206 11.6922 7.95986 12.2668 7.79476C14.236 7.18884 15.946 8.63179 16.0147 8.69269C16.0495 8.72201 16.0775 8.75858 16.0967 8.79986C16.1159 8.84113 16.1259 8.8861 16.1259 8.93162C16.1259 8.97714 16.1159 9.02211 16.0967 9.06339C16.0775 9.10466 16.0495 9.14123 16.0147 9.17055C15.9507 9.22365 14.4156 10.487 13.2038 10.8571C12.8468 10.9688 12.4753 11.0272 12.1013 11.0304ZM12.4589 8.3913C11.9858 8.52168 11.5551 8.77365 11.2096 9.12214C10.966 9.38762 10.8645 9.66402 10.93 9.87953C10.9956 10.095 11.2424 10.2668 11.5859 10.348C12.0631 10.4422 12.5565 10.411 13.0179 10.2574C13.7988 10.017 14.7888 9.32047 15.2885 8.93787C14.767 8.60056 13.6426 8.02588 12.4589 8.3913Z" fill="black"/>
<path d="M11.7375 8.56576C11.5922 8.56605 11.4483 8.53738 11.3143 8.48143C10.8973 8.30809 10.6225 7.89269 10.5428 7.31177C10.48 6.72916 10.5704 6.14025 10.8052 5.60335C11.2737 4.4618 12.6526 3.08444 12.7119 3.02666C12.744 2.99579 12.7824 2.97214 12.8244 2.9573C12.8664 2.94246 12.911 2.93677 12.9554 2.94062C12.9998 2.94446 13.0428 2.95775 13.0816 2.9796C13.1204 3.00144 13.1541 3.03133 13.1804 3.06726C13.2335 3.14378 14.4813 4.94122 13.7067 6.81517C13.4922 7.36026 13.1391 7.83989 12.6823 8.20658C12.4143 8.42511 12.0829 8.5511 11.7375 8.56576ZM12.8728 3.75906C12.4558 4.21194 11.6875 5.10519 11.383 5.83759C11.1925 6.27237 11.1167 6.74875 11.1628 7.22119C11.2112 7.57412 11.3533 7.8193 11.5548 7.90519C11.7562 7.99108 12.0326 7.91612 12.3122 7.7053C12.6797 7.40375 12.9637 7.01281 13.1367 6.57C13.6005 5.45499 13.157 4.315 12.8728 3.75906Z" fill="black"/>
<path d="M14.6449 8.42735C13.8329 8.42735 13.1832 8.09784 13.0068 7.52472C12.771 6.72517 13.5518 5.80069 14.7886 5.41965C16.6001 4.86215 18.1742 6.18953 18.2398 6.24575C18.2747 6.27529 18.3027 6.31214 18.3218 6.35368C18.3409 6.39523 18.3506 6.44046 18.3504 6.48619C18.3501 6.53192 18.3397 6.57702 18.3201 6.61832C18.3004 6.65961 18.272 6.69609 18.2367 6.72517C18.1773 6.77358 16.7719 7.93075 15.6647 8.27118C15.3344 8.37351 14.9907 8.42614 14.6449 8.42735ZM15.6912 5.91C15.4478 5.90931 15.2057 5.94511 14.9729 6.01619C14.0187 6.30978 13.4862 6.95317 13.6064 7.34201C13.7267 7.73086 14.5262 7.96667 15.4804 7.67152C16.1753 7.45757 17.0514 6.84385 17.5105 6.49405C16.9692 6.13601 16.3398 5.93394 15.6912 5.91Z" fill="black"/>
<path d="M4.21368 19.9996C4.01083 20.0006 3.80854 19.9781 3.61089 19.9325C3.07057 19.8044 2.70358 19.5077 2.57709 19.097C2.4506 18.6863 2.58802 18.235 2.96281 17.8258C3.34709 17.4311 3.82781 17.1437 4.35735 16.9919C6.16727 16.4344 7.74296 17.7618 7.80855 17.818C7.84337 17.8473 7.87136 17.8839 7.89057 17.9252C7.90977 17.9665 7.91972 18.0114 7.91972 18.0569C7.91972 18.1025 7.90977 18.1474 7.89057 18.1887C7.87136 18.23 7.84337 18.2666 7.80855 18.2959C7.7492 18.3443 6.34374 19.5015 5.23654 19.8419C4.90529 19.9449 4.56057 19.998 4.21368 19.9996ZM5.25997 17.4823C5.01656 17.4816 4.77442 17.5174 4.54162 17.5885C4.11924 17.7091 3.73482 17.936 3.42506 18.2475C3.20955 18.4833 3.11273 18.7253 3.17676 18.9143C3.24078 19.1032 3.44536 19.2516 3.75612 19.3265C4.18749 19.4107 4.63323 19.3827 5.05071 19.2453C5.74563 19.0314 6.62171 18.4177 7.08083 18.0679C6.53928 17.7089 5.90923 17.5063 5.25997 17.4823Z" fill="black"/>
<path d="M13.1142 3.86345C13.0551 3.86365 12.9971 3.84708 12.9471 3.81566C12.897 3.78423 12.8569 3.73925 12.8314 3.68594C12.8059 3.63263 12.796 3.57317 12.8029 3.51447C12.8099 3.45578 12.8333 3.40026 12.8706 3.35436L15.4738 0.126472C15.4989 0.0926283 15.5305 0.0642015 15.5668 0.0429009C15.6031 0.0216003 15.6434 0.00786593 15.6852 0.00252355C15.727 -0.00281883 15.7694 0.000341138 15.8099 0.0118134C15.8504 0.0232858 15.8882 0.0428335 15.921 0.0692812C15.9537 0.095729 15.9808 0.128531 16.0006 0.165714C16.0203 0.202897 16.0324 0.243694 16.036 0.285651C16.0396 0.327608 16.0347 0.36986 16.0215 0.409865C16.0084 0.44987 15.9872 0.486802 15.9595 0.518441L13.3578 3.74789C13.3284 3.78412 13.2912 3.81331 13.2491 3.83331C13.2069 3.85331 13.1608 3.86361 13.1142 3.86345Z" fill="black"/>
<path d="M16.7579 6.09458C16.6962 6.09463 16.6358 6.0764 16.5845 6.04218C16.5331 6.00796 16.493 5.95929 16.4693 5.90232C16.4456 5.84535 16.4393 5.78263 16.4512 5.72207C16.4631 5.66151 16.4926 5.60584 16.5361 5.56207L19.6282 2.46848C19.6868 2.40988 19.7662 2.37695 19.8491 2.37695C19.932 2.37695 20.0115 2.40988 20.0701 2.46848C20.1287 2.52709 20.1616 2.60657 20.1616 2.68945C20.1616 2.77233 20.1287 2.85182 20.0701 2.91042L16.9781 6.00401C16.9195 6.06209 16.8404 6.09465 16.7579 6.09458Z" fill="black"/>
<path d="M15.8702 4.56964C15.8098 4.5695 15.7508 4.55187 15.7003 4.5189C15.6497 4.48593 15.6098 4.43902 15.5854 4.38384C15.5609 4.32867 15.553 4.26759 15.5625 4.208C15.572 4.14841 15.5986 4.09285 15.6391 4.04805L19.0403 0.28453C19.0678 0.253769 19.101 0.228721 19.1382 0.210818C19.1754 0.192914 19.2157 0.182505 19.2569 0.180185C19.298 0.177865 19.3393 0.183679 19.3782 0.197295C19.4172 0.210912 19.453 0.232064 19.4838 0.259544C19.5146 0.287024 19.5396 0.320294 19.5575 0.357455C19.5754 0.394615 19.5858 0.434938 19.5881 0.476121C19.5905 0.517304 19.5846 0.55854 19.571 0.597476C19.5574 0.636412 19.5363 0.672285 19.5088 0.703046L16.1076 4.46657C16.0776 4.49971 16.041 4.52606 16 4.54384C15.9591 4.56162 15.9148 4.57042 15.8702 4.56964Z" fill="black"/>
<path d="M14.1559 6.23661C13.9728 6.24027 13.7942 6.17947 13.6515 6.06483C13.3969 5.85558 13.3095 5.50109 13.4047 5.06695C13.5067 4.66056 13.7012 4.28324 13.9732 3.96444C14.5322 3.28514 15.6909 2.59021 15.7472 2.55898C15.789 2.53288 15.8365 2.51708 15.8857 2.51286C15.9348 2.50865 15.9843 2.51614 16.03 2.53473C16.0757 2.55332 16.1164 2.58247 16.1486 2.6198C16.1809 2.65713 16.2039 2.70158 16.2156 2.7495C16.2313 2.80884 16.5842 4.21899 15.6581 5.34492C15.3976 5.67314 15.0646 5.93664 14.6853 6.11481C14.5191 6.19147 14.3388 6.23294 14.1559 6.23661ZM15.6597 3.35853C15.2171 3.64043 14.8125 3.97789 14.4557 4.36266C14.2498 4.60598 14.1014 4.89263 14.0216 5.20125C13.9763 5.40895 14.0059 5.54325 14.0559 5.58385C14.1059 5.62445 14.2433 5.62914 14.437 5.54481C14.7248 5.40529 14.9773 5.20241 15.1756 4.95139C15.5258 4.49722 15.6979 3.93075 15.6597 3.35853Z" fill="black"/>
</svg>
