<svg width="22" height="22" viewBox="0 0 22 22" fill="none" xmlns="http://www.w3.org/2000/svg">
<path d="M20.659 1.341C20.316 0.998099 19.8177 0.91354 19.1769 1.08853C18.5785 1.25228 17.8523 1.64058 16.956 2.276C15.3273 3.43053 12.0273 6.61753 9.84353 8.72662C9.03894 9.50369 8.40353 10.1174 8.03894 10.4499C7.01228 11.3861 6.38522 11.9636 6.37647 11.9719C6.34478 12.0036 6.32228 12.0378 6.29938 12.0728C5.24478 11.8657 4.32103 11.9986 3.55394 12.4807C2.45269 13.1736 1.69353 14.5502 1.29728 16.5714C0.893128 18.6334 1.01644 20.6109 1.02185 20.6942C1.03185 20.8463 1.15269 20.9667 1.30438 20.9767C1.34978 20.98 1.67063 21 2.16603 21C3.50269 20.9996 6.10397 20.8554 7.94813 19.8488C9.60563 18.9442 10.2856 17.5143 9.93188 15.7002C9.96478 15.6781 9.99644 15.6531 10.0269 15.6227C10.0298 15.6198 10.0323 15.6168 10.0356 15.6139C10.0356 15.6139 10.6135 14.9868 11.5498 13.9598C11.8819 13.5961 12.4948 12.9615 13.2702 12.1582C15.3802 9.97408 18.569 6.67249 19.724 5.04338C20.3586 4.14841 20.7469 3.42178 20.9115 2.82264C21.0865 2.18181 21.0019 1.68349 20.659 1.341ZM7.65813 19.3159C5.65019 20.4125 2.54603 20.4113 1.61519 20.3829C1.59644 19.775 1.58894 18.2367 1.89228 16.6876C2.25519 14.8364 2.9231 13.5936 3.87685 12.9936C4.51935 12.5898 5.30978 12.4844 6.22894 12.6727C6.39313 13.3665 7.17563 14.2056 7.48478 14.5143C7.79397 14.8235 8.63478 15.6089 9.32938 15.7722C9.65813 17.3622 9.11103 18.5238 7.65813 19.3159ZM9.59938 15.1927C9.47853 15.2456 8.83019 15.0035 7.91313 14.086C6.98978 13.1627 6.75144 12.5132 6.79644 12.4094C6.79644 12.4094 7.27144 11.9707 8.07144 11.2403C8.07478 11.2482 8.07938 11.2553 8.08228 11.2632C8.10894 11.3215 8.13938 11.3819 8.17313 11.444C8.18188 11.4594 8.18894 11.4749 8.19813 11.4903C8.22894 11.5449 8.26397 11.6011 8.30022 11.6578C8.61103 12.1461 9.03688 12.5953 9.22063 12.779C9.31894 12.8773 9.49563 13.0465 9.71103 13.229C9.72522 13.2411 9.73978 13.2532 9.75394 13.2648C9.79353 13.2977 9.83228 13.3298 9.87394 13.3631C9.92188 13.4015 9.96978 13.4386 10.0185 13.4748C10.034 13.4865 10.049 13.4986 10.0648 13.5102C10.1381 13.5644 10.2115 13.6156 10.2848 13.664L10.2885 13.6665C10.3589 13.7127 10.4289 13.7552 10.4989 13.7952C10.516 13.8048 10.5327 13.8135 10.5498 13.8231C10.6085 13.8548 10.6669 13.884 10.724 13.9102C10.7356 13.916 10.7473 13.9227 10.759 13.9281C10.0894 14.6606 9.66644 15.1202 9.59938 15.1927ZM20.3269 2.66305C20.184 3.18513 19.8148 3.86801 19.2298 4.69258C18.1015 6.28419 14.9319 9.56534 12.8344 11.7374C12.1269 12.4698 11.5544 13.0631 11.2019 13.4431C11.1998 13.4427 11.1973 13.4423 11.1973 13.4423C11.1473 13.4319 11.0902 13.4123 11.0277 13.3852C11.0135 13.379 10.9973 13.3707 10.9827 13.3636C10.9306 13.3394 10.876 13.3123 10.8169 13.279C10.8006 13.2702 10.7835 13.259 10.7664 13.2494C10.7031 13.2119 10.6373 13.1706 10.5685 13.124C10.5552 13.1148 10.5419 13.1052 10.5281 13.0961C10.454 13.0444 10.3769 12.9877 10.299 12.9269C10.2865 12.9173 10.274 12.9077 10.2615 12.8982C10.1852 12.8373 10.1073 12.7719 10.029 12.704C10.0106 12.6877 9.99272 12.6727 9.97397 12.6565C9.90103 12.5919 9.82813 12.5223 9.75478 12.4523C9.73147 12.4294 9.70894 12.409 9.68519 12.3857C9.49563 12.1986 9.30813 11.9944 9.13269 11.7765C9.04978 11.674 8.97897 11.5786 8.91563 11.489C8.89813 11.4636 8.88103 11.4386 8.86478 11.414C8.83813 11.3744 8.81228 11.3357 8.78894 11.2986C8.76144 11.2549 8.73603 11.2111 8.71313 11.1699C8.69897 11.1445 8.68603 11.1203 8.67353 11.0961C8.65522 11.0599 8.63813 11.0249 8.62353 10.9916C8.61313 10.967 8.60353 10.9441 8.59519 10.9216C8.58313 10.8903 8.57313 10.8607 8.56603 10.8332C8.56313 10.8224 8.55853 10.8095 8.55647 10.7991V10.797C8.93728 10.4441 9.53063 9.87077 10.2644 9.16245C12.4348 7.06626 15.7152 3.89801 17.3065 2.77014C18.1319 2.18475 18.8156 1.81601 19.3365 1.67267C19.9615 1.50183 20.1636 1.70308 20.2302 1.76933C20.2969 1.83557 20.4977 2.03682 20.3269 2.66305Z" fill="#747474" stroke="#7DDEC1"/>
</svg>
