<svg width="25" height="25" viewBox="0 0 25 25" fill="none" xmlns="http://www.w3.org/2000/svg">
<g clip-path="url(#clip0_129_614)">
<path d="M12.7373 4.39511H13.1505C13.4042 4.39511 13.64 4.26397 13.7737 4.04838C13.9516 3.76179 13.9708 3.42508 13.9708 3.2937C13.9708 2.83335 13.6614 2.37565 13.5283 2.2002C13.3897 2.01735 13.1734 1.90991 12.9439 1.90991C12.7144 1.90991 12.4981 2.01735 12.3594 2.2002C12.2264 2.37565 11.917 2.83335 11.917 3.2937C11.917 3.42514 11.9362 3.76179 12.114 4.04838C12.2479 4.26408 12.4836 4.39511 12.7373 4.39511Z" fill="#7DDEC1"/>
<path d="M18.7823 4.39511H19.1954C19.4492 4.39511 19.6849 4.26397 19.8187 4.04838C19.9965 3.76179 20.0157 3.42508 20.0157 3.2937C20.0157 2.83335 19.7063 2.37565 19.5733 2.2002C19.4346 2.01735 19.2183 1.90991 18.9888 1.90991C18.7593 1.90991 18.543 2.01735 18.4044 2.2002C18.2713 2.37565 17.9619 2.83335 17.9619 3.2937C17.9619 3.42514 17.9811 3.76179 18.159 4.04838C18.2928 4.26408 18.5285 4.39511 18.7823 4.39511Z" fill="#7DDEC1"/>
<path d="M6.69437 4.39511H7.10753C7.36126 4.39511 7.59698 4.26397 7.73077 4.04838C7.90862 3.76179 7.92781 3.42508 7.92781 3.2937C7.92781 2.83335 7.61839 2.37565 7.48537 2.2002C7.34671 2.01735 7.13041 1.90991 6.90092 1.90991C6.67142 1.90991 6.45513 2.01735 6.31647 2.2002C6.18344 2.37565 5.87402 2.83335 5.87402 3.2937C5.87402 3.42514 5.89321 3.76179 6.07107 4.04838C6.20492 4.26408 6.44063 4.39511 6.69437 4.39511Z" fill="#7DDEC1"/>
<path d="M24.2989 16.6035V10.9351C24.2989 8.91291 22.6536 7.26765 20.6314 7.26765H19.7218V5.53355C19.7218 5.12842 19.3935 4.80005 18.9883 4.80005C18.5832 4.80005 18.2549 5.12848 18.2549 5.53355V7.26759H13.6778V5.53355C13.6778 5.12842 13.3495 4.80005 12.9443 4.80005C12.5392 4.80005 12.2108 5.12842 12.2108 5.53355V7.26759H7.63382V5.53355C7.63382 5.12842 7.30545 4.80005 6.90033 4.80005C6.4952 4.80005 6.16683 5.12848 6.16683 5.53355V7.26759H5.25729C3.23507 7.26759 1.58981 8.91285 1.58981 10.9351V16.6034C1.22629 16.647 0.944336 16.9559 0.944336 17.3312C0.944336 17.7362 1.27277 18.0647 1.67783 18.0647H2.32331H12.2108V20.6355H9.48223C9.07717 20.6355 8.74874 20.964 8.74874 21.369C8.74874 21.7742 9.07717 22.1025 9.48223 22.1025H16.4064C16.8115 22.1025 17.1399 21.7742 17.1399 21.369C17.1399 20.964 16.8115 20.6355 16.4064 20.6355H13.6778V18.0647H23.5654H24.2108C24.6159 18.0647 24.9443 17.7362 24.9443 17.3312C24.9443 16.956 24.6624 16.647 24.2989 16.6035ZM3.05681 16.5977V10.9351C3.05681 9.72175 4.04392 8.73464 5.25729 8.73464H20.6314C21.8448 8.73464 22.8319 9.72175 22.8319 10.9351V16.5977H3.05681Z" fill="#7DDEC1"/>
</g>
<defs>
<clipPath id="clip0_129_614">
<rect width="24" height="24" fill="white" transform="translate(0.944336 0.00610352)"/>
</clipPath>
</defs>
</svg>
