<svg width="25" height="25" viewBox="0 0 25 25" fill="none" xmlns="http://www.w3.org/2000/svg">
<g clip-path="url(#clip0_129_610)">
<path d="M22.4822 12.7836C22.2963 12.4369 21.9686 12.1987 21.5942 12.1261L21.7567 11.5552C21.7661 11.5221 21.7733 11.4885 21.7781 11.4543C22.214 8.39352 20.5229 5.47051 17.7818 4.37307L17.9336 3.7071C17.9342 3.70431 17.9348 3.70156 17.9354 3.69877C18.0923 2.97309 17.8261 2.25324 17.2407 1.82021C16.6621 1.39218 15.8992 1.36333 15.2925 1.74498L13.2063 2.96236V0.740797C13.2063 0.33505 12.8896 0.00610352 12.4989 0.00610352C12.1082 0.00610352 11.7915 0.33505 11.7915 0.740797V2.96241L9.70537 1.74503C9.09868 1.36338 8.33569 1.39223 7.75715 1.82021C7.17169 2.25324 6.90549 2.97309 7.06236 3.69877C7.06297 3.70156 7.06359 3.70431 7.0642 3.7071L7.21211 4.35578C4.46326 5.4327 2.75134 8.34478 3.16564 11.4076C3.17059 11.4442 3.17823 11.4804 3.18837 11.5158L3.36633 12.1341C3.01471 12.2136 2.70639 12.4406 2.52546 12.7653C2.30326 13.164 2.3027 13.6407 2.52386 14.0402L5.82346 20.0028C6.49637 21.2189 7.45638 22.2319 8.59953 22.9322C9.74641 23.6348 11.0502 24.0061 12.3699 24.0061C14.9783 24.0061 17.3759 22.5959 18.7836 20.2338L22.4531 14.0764C22.6912 13.6767 22.7021 13.1934 22.4822 12.7836ZM8.57798 3.01712C8.63637 2.97387 8.79206 2.88596 8.97544 3.0038C8.98388 3.00919 8.99237 3.01443 9.00105 3.01947L11.917 4.72112C12.325 4.96529 12.6493 4.96837 13.0808 4.72117C13.0808 4.72117 16.014 3.00919 16.0224 3.0038C16.2057 2.8861 16.3614 2.97392 16.42 3.01712C16.4881 3.06752 16.596 3.18081 16.5556 3.37394L15.9864 5.87053L15.1745 5.45327C14.6437 5.1806 13.9946 5.35864 13.6644 5.86769L12.499 7.66416L11.3336 5.86769C11.1076 5.51934 10.7324 5.32597 10.3478 5.32597C10.1704 5.32597 9.99101 5.36716 9.82348 5.45327L9.01157 5.87053L8.44228 3.3737C8.40195 3.18067 8.50982 3.06752 8.57798 3.01712ZM7.5417 5.80107L7.70202 6.50432C7.78527 6.86932 8.02105 7.1705 8.34899 7.33051C8.67858 7.49151 9.05487 7.48754 9.38135 7.31983L10.2725 6.86183L11.5157 8.7782C11.736 9.11778 12.1036 9.3205 12.4989 9.3205C12.8943 9.3205 13.2619 9.11773 13.4822 8.7782L14.7253 6.86183L15.6166 7.31988C15.9431 7.48764 16.3194 7.49136 16.649 7.33051C16.9769 7.17035 17.2127 6.86922 17.2959 6.50428L17.4518 5.82008C19.4613 6.71949 20.6893 8.90109 20.3853 11.1898L20.0409 12.3995C17.8051 13.0893 15.2283 13.7204 12.5169 13.7204C9.77287 13.7204 7.16688 13.0741 4.91241 12.3747L4.5599 11.15C4.27346 8.85774 5.52146 6.68256 7.5417 5.80107ZM17.5805 19.4605C16.4325 21.3867 14.4847 22.5367 12.3699 22.5367C10.2034 22.5367 8.16509 21.2852 7.05028 19.2706L6.14721 17.6388H8.8138C9.25768 17.6388 9.61883 18.0065 9.61883 18.4584C9.61883 19.8921 10.7504 21.0584 12.1412 21.0584C12.1446 21.0584 12.148 21.0584 12.1514 21.0584C13.5422 21.0584 14.6738 19.8921 14.6738 18.4584C14.6738 18.0064 15.0349 17.6388 15.4788 17.6388H16.6888C17.0795 17.6388 17.3962 17.3098 17.3962 16.9041C17.3962 16.4983 17.0795 16.1694 16.6888 16.1694H15.4788C14.2548 16.1694 13.259 17.1963 13.259 18.4584C13.259 19.0819 12.7621 19.589 12.1514 19.589C12.148 19.589 12.1447 19.589 12.1413 19.589C11.5306 19.589 11.0337 19.0819 11.0337 18.4584C11.0337 17.1962 10.0379 16.1694 8.8139 16.1694H5.33407L3.90854 13.5933C6.3935 14.3919 9.3446 15.1898 12.5169 15.1898C15.6639 15.1898 18.5932 14.4046 21.0656 13.6125L17.5805 19.4605ZM15.0282 9.55712V9.45916C15.0282 9.05342 15.3449 8.72447 15.7356 8.72447C16.1263 8.72447 16.4431 9.05342 16.4431 9.45916V9.55712C16.4431 9.96287 16.1263 10.2918 15.7356 10.2918C15.3449 10.2918 15.0282 9.96287 15.0282 9.55712ZM11.7678 11.6143V11.5163C11.7678 11.1106 12.0845 10.7816 12.4753 10.7816C12.8659 10.7816 13.1827 11.1106 13.1827 11.5163V11.6143C13.1827 12.02 12.866 12.349 12.4753 12.349C12.0845 12.349 11.7678 12.02 11.7678 11.6143ZM8.35602 9.55712V9.45916C8.35602 9.05342 8.67273 8.72447 9.06345 8.72447C9.45417 8.72447 9.77089 9.05342 9.77089 9.45916V9.55712C9.77089 9.96287 9.45417 10.2918 9.06345 10.2918C8.67273 10.2918 8.35602 9.96287 8.35602 9.55712Z" fill="#7DDEC1"/>
</g>
<defs>
<clipPath id="clip0_129_610">
<rect width="23.1111" height="24" fill="white" transform="translate(0.944336 0.00610352)"/>
</clipPath>
</defs>
</svg>
