<svg width="24" height="28" viewBox="0 0 24 28" fill="none" xmlns="http://www.w3.org/2000/svg">
<path d="M10.9144 17.4321L9.85635 18.3116C9.77141 18.3822 9.64532 18.3706 9.57471 18.2857L8.8427 17.4052C8.77208 17.3202 8.78369 17.1941 8.86862 17.1235L11.8868 14.6141C11.9609 14.5525 12.0684 14.5525 12.1425 14.6141L15.161 17.1235C15.246 17.1941 15.2576 17.3202 15.1869 17.4052L14.4546 18.2857C14.384 18.3706 14.2579 18.3822 14.1729 18.3116L13.1145 17.4313C12.9842 17.323 12.7866 17.4156 12.7866 17.5851V22.0404C12.7866 22.1508 12.6971 22.2404 12.5866 22.2404H11.4422C11.3318 22.2404 11.2422 22.1508 11.2422 22.0404V17.5859C11.2422 17.4164 11.0447 17.3237 10.9144 17.4321Z" fill="#F8B4CB"/>
<path d="M14.5454 0.929688H9.41463C8.31901 0.929688 7.26826 1.32008 6.49354 2.01499C5.71883 2.7099 5.28359 3.65241 5.28359 4.63516V7.69217H1.23931C0.910625 7.69217 0.595401 7.80929 0.362985 8.01776C0.13057 8.22624 0 8.50899 0 8.80381C0 8.80381 0 8.83346 0 8.85198C0 8.85198 0.890801 20.6885 1.08909 24.8312C1.12209 25.4991 1.09487 25.8347 1.63364 26.2966C2.1724 26.7584 2.90245 27.0685 3.6477 27.0678H20.3123C21.0582 27.0684 21.7756 27.0738 22.3145 26.6112C22.8533 26.1485 22.8389 25.4058 22.8709 24.7373L23.96 8.84828C23.96 8.84828 23.96 8.81863 23.96 8.80011C23.96 8.50528 23.8294 8.22253 23.597 8.01406C23.3646 7.80559 23.0494 7.68847 22.7207 7.68847H18.6764V4.63516C18.6764 3.65241 18.2412 2.7099 17.4665 2.01499C16.6917 1.32008 15.641 0.929688 14.5454 0.929688ZM7.76221 4.63516C7.76221 4.24206 7.93631 3.86506 8.24619 3.58709C8.55608 3.30913 8.97638 3.15297 9.41463 3.15297H14.5454C14.9836 3.15297 15.4039 3.30913 15.7138 3.58709C16.0237 3.86506 16.1978 4.24206 16.1978 4.63516V7.69217H7.76221V4.63516ZM21.7818 9.91545L20.7254 24.7373C20.7254 24.8356 20.6819 24.9299 20.6044 24.9994C20.5269 25.0688 20.4219 25.1079 20.3123 25.1079H3.6477C3.54163 25.108 3.43957 25.0715 3.36266 25.006C3.28576 24.9405 3.2399 24.8509 3.2346 24.7559C3.07349 21.395 2.42905 12.9947 2.28446 9.91545H5.28359V14.4547C5.28359 14.7495 5.41416 15.0322 5.64658 15.2407C5.87899 15.4492 6.19422 15.5663 6.5229 15.5663C6.85159 15.5663 7.16681 15.4492 7.39923 15.2407C7.63164 15.0322 7.76221 14.7495 7.76221 14.4547V9.91545H16.1978V14.4547C16.1978 14.7495 16.3284 15.0322 16.5608 15.2407C16.7932 15.4492 17.1084 15.5663 17.4371 15.5663C17.7658 15.5663 18.081 15.4492 18.3134 15.2407C18.5458 15.0322 18.6764 14.7495 18.6764 14.4547V9.91545H21.7818Z" fill="#F8B4CB"/>
</svg>
