<svg width="26" height="21" viewBox="0 0 26 21" fill="none" xmlns="http://www.w3.org/2000/svg">
<path d="M24.8568 7.35782L20.1546 0.995672C20.0382 0.834276 19.8927 0.704486 19.7284 0.615465C19.564 0.526443 19.3848 0.48036 19.2035 0.480469H2.23931C1.91063 0.480469 1.5954 0.631948 1.36299 0.901583C1.13057 1.17122 1 1.53692 1 1.91824V15.3375C1 15.7188 1.13057 16.0845 1.36299 16.3541C1.5954 16.6238 1.91063 16.7752 2.23931 16.7752H4.33479C4.43456 17.5732 4.77871 18.3028 5.30425 18.8304C5.82979 19.3581 6.50156 19.6485 7.19657 19.6485C7.89158 19.6485 8.56334 19.3581 9.08888 18.8304C9.61442 18.3028 9.95858 17.5732 10.0584 16.7752H15.9017C16.0015 17.5732 16.3456 18.3028 16.8712 18.8304C17.3967 19.3581 18.0685 19.6485 18.7635 19.6485C19.4585 19.6485 20.1303 19.3581 20.6558 18.8304C21.1814 18.3028 21.5255 17.5732 21.6253 16.7752H23.7208C24.0494 16.7752 24.3647 16.6238 24.5971 16.3541C24.8295 16.0845 24.9601 15.7188 24.9601 15.3375V7.66934C24.9589 7.5545 24.9223 7.44395 24.8568 7.35782ZM19.5236 1.61511L23.6485 7.19008H16.698V1.43899H19.2035C19.2647 1.43895 19.3253 1.45474 19.3806 1.4852C19.436 1.51567 19.4848 1.56004 19.5236 1.61511ZM9.26209 7.19008V1.43899H15.8718V7.19008H9.26209ZM2.23931 1.43899H8.43588V7.19008H1.82621V1.91824C1.82621 1.79114 1.86973 1.66923 1.9472 1.57936C2.02468 1.48948 2.12975 1.43899 2.23931 1.43899ZM7.19657 18.6923C6.78805 18.6923 6.3887 18.5517 6.04903 18.2884C5.70935 18.0251 5.44461 17.6509 5.28827 17.213C5.13194 16.7751 5.09104 16.2933 5.17073 15.8285C5.25043 15.3637 5.44715 14.9367 5.73602 14.6016C6.02489 14.2664 6.39293 14.0382 6.7936 13.9457C7.19428 13.8533 7.60959 13.9007 7.98701 14.0821C8.36444 14.2635 8.68703 14.5706 8.91399 14.9647C9.14095 15.3587 9.26209 15.822 9.26209 16.296C9.26209 16.9315 9.04447 17.541 8.65711 17.9904C8.26975 18.4398 7.74438 18.6923 7.19657 18.6923ZM18.7635 18.6923C18.355 18.6923 17.9556 18.5517 17.616 18.2884C17.2763 18.0251 17.0115 17.6509 16.8552 17.213C16.6989 16.7751 16.658 16.2933 16.7377 15.8285C16.8174 15.3637 17.0141 14.9367 17.303 14.6016C17.5918 14.2664 17.9599 14.0382 18.3605 13.9457C18.7612 13.8533 19.1765 13.9007 19.5539 14.0821C19.9314 14.2635 20.254 14.5706 20.4809 14.9647C20.7079 15.3587 20.829 15.822 20.829 16.296C20.829 16.9315 20.6114 17.541 20.224 17.9904C19.8367 18.4398 19.3113 18.6923 18.7635 18.6923ZM23.7208 15.8167H21.6253C21.5255 15.0188 21.1814 14.2892 20.6558 13.7616C20.1303 13.2339 19.4585 12.9435 18.7635 12.9435C18.0685 12.9435 17.3967 13.2339 16.8712 13.7616C16.3456 14.2892 16.0015 15.0188 15.9017 15.8167H10.0584C9.95858 15.0188 9.61442 14.2892 9.08888 13.7616C8.56334 13.2339 7.89158 12.9435 7.19657 12.9435C6.50156 12.9435 5.82979 13.2339 5.30425 13.7616C4.77871 14.2892 4.43456 15.0188 4.33479 15.8167H2.23931C2.12975 15.8167 2.02468 15.7662 1.9472 15.6764C1.86973 15.5865 1.82621 15.4646 1.82621 15.3375V8.1486H24.1339V15.3375C24.1339 15.4646 24.0903 15.5865 24.0129 15.6764C23.9354 15.7662 23.8303 15.8167 23.7208 15.8167Z" fill="#F8B4CB" stroke="#F8B4CB" stroke-width="0.898501"/>
</svg>
