<svg width="27" height="25" viewBox="0 0 27 25" fill="none" xmlns="http://www.w3.org/2000/svg">
<path d="M10.2397 23.0678C11.2934 23.0678 12.1475 22.2499 12.1475 21.241C12.1475 20.232 11.2934 19.4141 10.2397 19.4141C9.18615 19.4141 8.33203 20.232 8.33203 21.241C8.33203 22.2499 9.18615 23.0678 10.2397 23.0678Z" stroke="#F8B4CB" stroke-width="2.06251" stroke-linecap="round" stroke-linejoin="round"/>
<path d="M22.9753 23.0678C23.9843 23.0678 24.8023 22.2499 24.8023 21.241C24.8023 20.232 23.9843 19.4141 22.9753 19.4141C21.9664 19.4141 21.1484 20.232 21.1484 21.241C21.1484 22.2499 21.9664 23.0678 22.9753 23.0678Z" stroke="#F8B4CB" stroke-width="2.06251" stroke-linecap="round" stroke-linejoin="round"/>
<path d="M2 1.06641H5.85057L8.73849 17.4311H24.1408" stroke="#F8B4CB" stroke-width="2.06251" stroke-linecap="round" stroke-linejoin="round"/>
<path d="M8.73778 13.5794H23.7454C23.8567 13.5795 23.9646 13.541 24.0507 13.4705C24.1368 13.3999 24.1958 13.3017 24.2177 13.1926L25.9504 4.5289C25.9644 4.45904 25.9627 4.38695 25.9454 4.31782C25.9282 4.2487 25.8958 4.18427 25.8506 4.12919C25.8054 4.0741 25.7486 4.02974 25.6842 3.99929C25.6197 3.96884 25.5494 3.95308 25.4781 3.95313H6.8125" stroke="#F8B4CB" stroke-width="2.06251" stroke-linecap="round" stroke-linejoin="round"/>
</svg>
