<svg width="25" height="25" viewBox="0 0 25 25" fill="none" xmlns="http://www.w3.org/2000/svg">
<g clip-path="url(#clip0_129_623)">
<path d="M18.8037 15.3248H21.0912C21.41 15.3248 21.6678 15.067 21.6678 14.7482C21.6678 14.4295 21.41 14.1717 21.0912 14.1717H18.8037V12.6342H22.8678C23.7443 12.6342 24.4521 11.9217 24.4521 11.0498V9.37637C24.4521 9.05762 24.1943 8.7998 23.8756 8.7998C23.5568 8.7998 23.299 9.05762 23.299 9.37637V11.0498C23.299 11.2889 23.1021 11.4857 22.8631 11.4857H18.8037V9.94824H21.0912C21.41 9.94824 21.6678 9.69043 21.6678 9.37168C21.6678 9.05293 21.41 8.79512 21.0912 8.79512H18.8037V6.68105C18.8037 6.3623 18.5459 6.10449 18.2271 6.10449H16.1131V3.8873C16.1131 3.56855 15.8553 3.31074 15.5365 3.31074C15.2178 3.31074 14.96 3.56855 14.96 3.8873V6.11855H13.4225V2.11074C13.4225 1.23418 12.71 0.526367 11.8381 0.526367H10.1646C9.8459 0.526367 9.58809 0.78418 9.58809 1.10293C9.58809 1.42168 9.8459 1.6748 10.1646 1.6748H11.8381C12.0771 1.6748 12.274 1.87168 12.274 2.11074V6.11387H10.7365V3.8873C10.7365 3.56855 10.4787 3.31074 10.16 3.31074C9.84121 3.31074 9.5834 3.56855 9.5834 3.8873V6.11855H7.46934C7.15059 6.11855 6.89277 6.37637 6.89277 6.69512V8.80918H4.79746C4.47871 8.80918 4.2209 9.06699 4.2209 9.38574C4.2209 9.70449 4.47871 9.9623 4.79746 9.9623H6.91152V11.4904H3.0209C2.14434 11.4904 1.43652 12.2029 1.43652 13.0748V14.7482C1.43652 15.067 1.69434 15.3248 2.0084 15.3248C2.32246 15.3248 2.58496 15.067 2.58496 14.7529V13.0795C2.58496 12.8404 2.78184 12.6436 3.0209 12.6436H6.90684V14.1811H4.79746C4.47871 14.1811 4.2209 14.4389 4.2209 14.7576C4.2209 15.0764 4.47871 15.3342 4.79746 15.3342H6.91152V17.4482C6.91152 17.767 7.16934 18.0248 7.48809 18.0248H9.60215V20.1389C9.60215 20.4576 9.85996 20.7154 10.1787 20.7154C10.4975 20.7154 10.7553 20.4576 10.7553 20.1389V18.0248H12.2928V21.9107C12.2928 22.7873 13.0053 23.4951 13.8771 23.4951H15.5506C15.8693 23.4951 16.1271 23.2373 16.1271 22.9186C16.1271 22.5998 15.8693 22.342 15.5506 22.342H13.8771C13.6381 22.342 13.4412 22.1451 13.4412 21.9061V18.0201H14.9787V20.1342C14.9787 20.4529 15.2365 20.7107 15.5553 20.7107C15.874 20.7107 16.1318 20.4529 16.1318 20.1342V18.0201H18.2459C18.5646 18.0201 18.8225 17.7623 18.8225 17.4436V15.3248H18.8037ZM17.6553 16.8623H8.05527V7.26699H17.6553V16.8623Z" fill="#7DDEC1"/>
<path d="M10.0014 15.4936H15.7154C16.0342 15.4936 16.292 15.2358 16.292 14.917V9.20767C16.292 8.88892 16.0342 8.6311 15.7154 8.6311H10.0014C9.68262 8.6311 9.4248 8.88892 9.4248 9.20767V14.9217C9.4248 15.2405 9.68262 15.4936 10.0014 15.4936ZM10.5732 9.78423H15.1389V14.3499H10.5732V9.78423Z" fill="#7DDEC1"/>
</g>
<defs>
<clipPath id="clip0_129_623">
<rect width="24" height="24" fill="white" transform="translate(0.944336 0.00610352)"/>
</clipPath>
</defs>
</svg>
