<svg width="50" height="50" viewBox="0 0 50 50" fill="none" xmlns="http://www.w3.org/2000/svg">
<circle cx="25" cy="25" r="25" fill="#090909"/>
<g clip-path="url(#clip0_129_201)">
<path d="M18.85 36C18.0583 36 17.3854 35.7229 16.8312 35.1688C16.2771 34.6146 16 33.9417 16 33.15C16 32.3583 16.2771 31.6854 16.8312 31.1313C17.3854 30.5771 18.0583 30.3 18.85 30.3C19.0833 30.3 19.2875 30.3208 19.4625 30.3625C19.6375 30.4042 19.8167 30.4667 20 30.55L22.125 27.9C21.8083 27.5167 21.5667 27.0792 21.4 26.5875C21.2333 26.0958 21.1917 25.5833 21.275 25.05L18.25 24.025C18 24.4417 17.6708 24.7667 17.2625 25C16.8542 25.2333 16.3833 25.35 15.85 25.35C15.0583 25.35 14.3854 25.0729 13.8313 24.5188C13.2771 23.9646 13 23.2917 13 22.5C13 21.7083 13.2771 21.0354 13.8313 20.4813C14.3854 19.9271 15.0583 19.65 15.85 19.65C16.6417 19.65 17.3146 19.9271 17.8688 20.4813C18.4229 21.0354 18.7 21.7083 18.7 22.5V22.6L21.75 23.65C22.05 23.1167 22.4125 22.7083 22.8375 22.425C23.2625 22.1417 23.7333 21.9417 24.25 21.825V18.6C23.6 18.4167 23.0875 18.0583 22.7125 17.525C22.3375 16.9917 22.15 16.4333 22.15 15.85C22.15 15.0583 22.4271 14.3854 22.9812 13.8313C23.5354 13.2771 24.2083 13 25 13C25.7917 13 26.4646 13.2771 27.0188 13.8313C27.5729 14.3854 27.85 15.0583 27.85 15.85C27.85 16.4333 27.6583 16.9917 27.275 17.525C26.8917 18.0583 26.3833 18.4167 25.75 18.6V21.825C26.2667 21.9417 26.7417 22.1417 27.175 22.425C27.6083 22.7083 27.975 23.1167 28.275 23.65L31.3 22.6V22.5C31.3 21.7083 31.5771 21.0354 32.1313 20.4813C32.6854 19.9271 33.3583 19.65 34.15 19.65C34.9417 19.65 35.6146 19.9271 36.1688 20.4813C36.7229 21.0354 37 21.7083 37 22.5C37 23.2917 36.7229 23.9646 36.1688 24.5188C35.6146 25.0729 34.9417 25.35 34.15 25.35C33.6167 25.35 33.1417 25.2333 32.725 25C32.3083 24.7667 31.9833 24.4417 31.75 24.025L28.725 25.05C28.8083 25.5833 28.7708 26.0958 28.6125 26.5875C28.4542 27.0792 28.2083 27.5167 27.875 27.9L30 30.55C30.1833 30.4667 30.3625 30.4042 30.5375 30.3625C30.7125 30.3208 30.913 30.3 31.1391 30.3C31.9464 30.3 32.625 30.5771 33.175 31.1313C33.725 31.6854 34 32.3583 34 33.15C34 33.9417 33.7229 34.6146 33.1688 35.1688C32.6146 35.7229 31.9417 36 31.15 36C30.3583 36 29.6854 35.7229 29.1313 35.1688C28.5771 34.6146 28.3 33.9417 28.3 33.15C28.3 32.8167 28.3458 32.5167 28.4375 32.25C28.5292 31.9833 28.6583 31.725 28.825 31.475L26.7 28.825C26.1645 29.1083 25.5932 29.25 24.9859 29.25C24.3786 29.25 23.8083 29.1083 23.275 28.825L21.175 31.5C21.3417 31.75 21.4708 32.0042 21.5625 32.2625C21.6542 32.5208 21.7 32.8167 21.7 33.15C21.7 33.9417 21.4229 34.6146 20.8688 35.1688C20.3146 35.7229 19.6417 36 18.85 36ZM15.8509 23.85C16.2336 23.85 16.5542 23.7205 16.8125 23.4616C17.0708 23.2027 17.2 22.8819 17.2 22.4991C17.2 22.1164 17.0705 21.7958 16.8116 21.5375C16.5527 21.2792 16.2319 21.15 15.8491 21.15C15.4664 21.15 15.1458 21.2795 14.8875 21.5384C14.6292 21.7973 14.5 22.1181 14.5 22.5009C14.5 22.8836 14.6295 23.2042 14.8884 23.4625C15.1473 23.7208 15.4681 23.85 15.8509 23.85ZM18.8509 34.5C19.2336 34.5 19.5542 34.3705 19.8125 34.1116C20.0708 33.8527 20.2 33.5319 20.2 33.1491C20.2 32.7664 20.0705 32.4458 19.8116 32.1875C19.5527 31.9292 19.2319 31.8 18.8491 31.8C18.4664 31.8 18.1458 31.9295 17.8875 32.1884C17.6292 32.4473 17.5 32.7681 17.5 33.1509C17.5 33.5336 17.6295 33.8542 17.8884 34.1125C18.1473 34.3708 18.4681 34.5 18.8509 34.5ZM25.0009 17.2C25.3836 17.2 25.7042 17.0705 25.9625 16.8116C26.2208 16.5527 26.35 16.2319 26.35 15.8491C26.35 15.4664 26.2205 15.1458 25.9616 14.8875C25.7027 14.6292 25.3819 14.5 24.9991 14.5C24.6164 14.5 24.2958 14.6295 24.0375 14.8884C23.7792 15.1473 23.65 15.4681 23.65 15.8509C23.65 16.2336 23.7795 16.5542 24.0384 16.8125C24.2973 17.0708 24.6181 17.2 25.0009 17.2ZM25.0125 27.75C25.6375 27.75 26.1667 27.5292 26.6 27.0875C27.0333 26.6458 27.25 26.1125 27.25 25.4875C27.25 24.8625 27.0325 24.3333 26.5975 23.9C26.1625 23.4667 25.63 23.25 25 23.25C24.3833 23.25 23.8542 23.4675 23.4125 23.9025C22.9708 24.3375 22.75 24.87 22.75 25.5C22.75 26.1167 22.9708 26.6458 23.4125 27.0875C23.8542 27.5292 24.3875 27.75 25.0125 27.75ZM31.1509 34.5C31.5336 34.5 31.8542 34.3705 32.1125 34.1116C32.3708 33.8527 32.5 33.5319 32.5 33.1491C32.5 32.7664 32.3705 32.4458 32.1116 32.1875C31.8527 31.9292 31.5319 31.8 31.1491 31.8C30.7664 31.8 30.4458 31.9295 30.1875 32.1884C29.9292 32.4473 29.8 32.7681 29.8 33.1509C29.8 33.5336 29.9295 33.8542 30.1884 34.1125C30.4473 34.3708 30.7681 34.5 31.1509 34.5ZM34.1509 23.85C34.5336 23.85 34.8542 23.7205 35.1125 23.4616C35.3708 23.2027 35.5 22.8819 35.5 22.4991C35.5 22.1164 35.3705 21.7958 35.1116 21.5375C34.8527 21.2792 34.5319 21.15 34.1491 21.15C33.7664 21.15 33.4458 21.2795 33.1875 21.5384C32.9292 21.7973 32.8 22.1181 32.8 22.5009C32.8 22.8836 32.9295 23.2042 33.1884 23.4625C33.4473 23.7208 33.7681 23.85 34.1509 23.85Z" fill="white"/>
</g>
<defs>
<clipPath id="clip0_129_201">
<rect width="24" height="24" fill="white" transform="translate(13 13)"/>
</clipPath>
</defs>
</svg>
