<svg width="22" height="23" viewBox="0 0 22 23" fill="none" xmlns="http://www.w3.org/2000/svg">
<path d="M13.1009 8.42262C13.9505 8.42262 14.6393 7.73383 14.6393 6.88416C14.6393 6.03449 13.9505 5.3457 13.1009 5.3457C12.2513 5.3457 11.5625 6.03449 11.5625 6.88416C11.5625 7.73383 12.2513 8.42262 13.1009 8.42262Z" stroke="#F8B4CB" stroke-width="1.8" stroke-linecap="round" stroke-linejoin="round"/>
<path d="M6.94889 16.1146C7.37371 16.1146 7.71809 15.7702 7.71809 15.3454C7.71809 14.9206 7.37371 14.5762 6.94889 14.5762C6.52407 14.5762 6.17969 14.9206 6.17969 15.3454C6.17969 15.7702 6.52407 16.1146 6.94889 16.1146Z" stroke="#F8B4CB" stroke-width="1.8" stroke-linecap="round" stroke-linejoin="round"/>
<path d="M6.94856 10.7312C7.7982 10.7312 8.48697 10.0424 8.48697 9.19276C8.48697 8.34309 7.7982 7.6543 6.94856 7.6543C6.09892 7.6543 5.41016 8.34309 5.41016 9.19276C5.41016 10.0424 6.09892 10.7312 6.94856 10.7312Z" stroke="#F8B4CB" stroke-width="1.8" stroke-linecap="round" stroke-linejoin="round"/>
<path d="M14.6719 19.623C14.6548 19.3246 14.5511 19.0377 14.3735 18.7972C14.1959 18.5568 13.9521 18.3733 13.672 18.2692C12.9762 18.0405 12.3848 17.5711 12.0041 16.9453C11.6234 16.3196 11.4784 15.5785 11.5952 14.8554C11.712 14.1324 12.0829 13.4747 12.6413 13.0006C13.1996 12.5265 13.9087 12.2672 14.6412 12.2692H17.518C18.0114 12.2706 18.4979 12.1533 18.9365 11.9272C19.375 11.701 19.7528 11.3728 20.0379 10.97C20.3229 10.5673 20.507 10.1019 20.5745 9.6131C20.6419 9.1243 20.5909 8.62645 20.4256 8.16153C19.8137 6.43379 18.7387 4.90746 17.3182 3.7493C15.8976 2.59114 14.186 1.8457 12.3705 1.59442C10.555 1.34315 8.70533 1.5957 7.02361 2.32449C5.34189 3.05328 3.89281 4.23028 2.8347 5.72688C1.77658 7.22348 1.15013 8.98212 1.02379 10.8107C0.897447 12.6392 1.27607 14.4673 2.1183 16.0952C2.96053 17.7231 4.23396 19.0882 5.79946 20.0414C7.36496 20.9946 9.16232 21.4991 10.9951 21.5C11.9003 21.5025 12.8013 21.3782 13.672 21.1307C13.9918 21.0411 14.2687 20.8396 14.4522 20.5628C14.6358 20.286 14.7138 19.9525 14.6719 19.623Z" stroke="#F8B4CB" stroke-width="1.8" stroke-linecap="round" stroke-linejoin="round"/>
</svg>
