<svg width="24" height="24" viewBox="0 0 24 24" fill="none" xmlns="http://www.w3.org/2000/svg">
<path d="M1.40663 4.3125C1.03163 4.3125 0.797259 4.34377 0.703509 4.40625C0.609759 4.46873 0.594149 4.53905 0.656634 4.61719C0.719118 4.69533 0.8754 4.82812 1.12538 5.01562C1.2504 5.10938 1.34415 5.18752 1.40663 5.25L12.0004 13.3125L22.5941 5.29688L22.8285 5.0625C23.0785 4.875 23.2426 4.7422 23.3207 4.66406C23.3988 4.58592 23.391 4.50783 23.2973 4.42969C23.2035 4.35155 22.9691 4.3125 22.5941 4.3125H11.2973H1.40663Z" fill="#010002"/>
<path d="M0 6.1875V18.0938C0 18.4375 0.140625 18.789 0.421875 19.1484C0.703125 19.5078 0.984375 19.6875 1.26562 19.6875H22.7344C23.0156 19.6875 23.2969 19.5078 23.5781 19.1484C23.8594 18.789 24 18.4375 24 18.0938V6.1875L12 15.375L0 6.1875Z" fill="#010002"/>
</svg>
