<svg width="45" height="43" viewBox="0 0 45 43" fill="none" xmlns="http://www.w3.org/2000/svg">
<path d="M36.6098 31.5117H19.0046C18.6277 31.5117 18.3047 31.1277 18.3047 30.6797C18.3047 30.2317 18.6277 29.8477 19.0046 29.8477H36.6098C36.9866 29.8477 37.3097 30.2317 37.3097 30.6797C37.3097 31.1277 36.9866 31.5117 36.6098 31.5117Z" fill="black"/>
<path d="M36.6098 13.5117H19.0046C18.6277 13.5117 18.3047 13.1277 18.3047 12.6797C18.3047 12.2317 18.6277 11.8477 19.0046 11.8477H36.6098C36.9866 11.8477 37.3097 12.2317 37.3097 12.6797C37.3097 13.1277 36.9866 13.5117 36.6098 13.5117Z" fill="black"/>
<path d="M12.4966 31.5117H9.15927C8.70122 31.5117 8.30859 31.1277 8.30859 30.6797C8.30859 30.2317 8.70122 29.8477 9.15927 29.8477H12.4966C12.9546 29.8477 13.3472 30.2317 13.3472 30.6797C13.3472 31.1277 13.0201 31.5117 12.4966 31.5117Z" fill="black"/>
<path d="M12.4966 13.5117H9.15927C8.70122 13.5117 8.30859 13.1277 8.30859 12.6797C8.30859 12.2317 8.70122 11.8477 9.15927 11.8477H12.4966C12.9546 11.8477 13.3472 12.2317 13.3472 12.6797C13.3472 13.1277 13.0201 13.5117 12.4966 13.5117Z" fill="black"/>
<path d="M36.4715 22.5117H31.1925C30.7628 22.5117 30.3945 22.1277 30.3945 21.6797C30.3945 21.2317 30.7628 20.8477 31.1925 20.8477H36.4715C36.9012 20.8477 37.2695 21.2317 37.2695 21.6797C37.2695 22.1277 36.9012 22.5117 36.4715 22.5117Z" fill="black"/>
<path d="M24.7729 22.5117H9.01035C8.63248 22.5117 8.30859 22.1277 8.30859 21.6797C8.30859 21.2317 8.63248 20.8477 9.01035 20.8477H24.7729C25.1508 20.8477 25.4747 21.2317 25.4747 21.6797C25.4747 22.1277 25.1508 22.5117 24.7729 22.5117Z" fill="black"/>
<path d="M15.8403 34.776C13.55 34.776 11.6523 32.92 11.6523 30.68C11.6523 28.44 13.55 26.584 15.8403 26.584C18.1306 26.584 20.0283 28.44 20.0283 30.68C20.0283 32.92 18.196 34.776 15.8403 34.776ZM15.8403 28.248C14.4661 28.248 13.3537 29.336 13.3537 30.68C13.3537 32.024 14.4661 33.112 15.8403 33.112C17.2145 33.112 18.3269 32.024 18.3269 30.68C18.3269 29.336 17.2145 28.248 15.8403 28.248Z" fill="black"/>
<path d="M15.8403 16.776C13.55 16.776 11.6523 14.92 11.6523 12.68C11.6523 10.44 13.55 8.58398 15.8403 8.58398C18.1306 8.58398 20.0283 10.44 20.0283 12.68C20.0283 14.92 18.196 16.776 15.8403 16.776ZM15.8403 10.248C14.4661 10.248 13.3537 11.336 13.3537 12.68C13.3537 14.024 14.4661 15.112 15.8403 15.112C17.2145 15.112 18.3269 14.024 18.3269 12.68C18.3269 11.336 17.2145 10.248 15.8403 10.248Z" fill="black"/>
<path d="M27.9302 25.776C25.6634 25.776 23.7852 23.92 23.7852 21.68C23.7852 19.44 25.6634 17.584 27.9302 17.584C30.1971 17.584 32.0753 19.44 32.0753 21.68C32.0753 23.92 30.2619 25.776 27.9302 25.776ZM27.9302 19.248C26.5701 19.248 25.4691 20.336 25.4691 21.68C25.4691 23.024 26.5701 24.112 27.9302 24.112C29.2904 24.112 30.3914 23.024 30.3914 21.68C30.3914 20.336 29.2904 19.248 27.9302 19.248Z" fill="black"/>
<rect x="1.12109" y="1.08398" width="43.3793" height="41.192" rx="3.5" stroke="#888888"/>
</svg>
