<svg width="1440" height="511" viewBox="0 0 1440 511" fill="none" xmlns="http://www.w3.org/2000/svg">
<path d="M27.5287 42.8634C29.9312 22.8634 10.1773 31.8634 0 38.8634V510.863H1440V1.36323H490.01C469.99 1.36323 432.851 -6.33677 390.407 14.8632C337.351 41.3632 360.876 72.8632 356.371 103.363C352.767 127.763 346.861 102.53 344.359 86.8632C344.192 69.6966 341.956 39.3632 334.348 55.3632C331.846 91.8632 328.342 86.8632 318.332 50.3632C308.321 13.8632 275.287 28.8632 285.297 66.8632C295.308 104.863 254.265 135.363 260.772 83.8632C267.278 32.3632 247.758 32.8632 222.231 28.8632C202.211 14.8631 205.714 28.3632 205.714 66.8632C173.18 90.8631 205.214 26.3632 178.686 12.3632C111.616 2.36298 178.186 79.3632 142.649 121.863C107.112 164.363 130.636 57.3634 112.117 22.3634C93.5975 -12.6366 100.104 68.8634 69.0719 46.8634C38.0396 24.8634 42.5443 38.8634 48.05 75.3634C29.0302 107.863 24.5255 67.8634 27.5287 42.8634Z" fill="#F8B4CB"/>
</svg>
