<svg width="15" height="15" viewBox="0 0 15 15" fill="none" xmlns="http://www.w3.org/2000/svg">
<path d="M14.4347 6.19604H8.31586C8.04605 6.19604 7.82764 6.41446 7.82764 6.68427V8.64037C7.82764 8.91018 8.04605 9.12859 8.31586 9.12859H11.7623C11.3865 10.1083 10.6799 10.9273 9.78374 11.4477L11.2516 13.9915C13.606 12.6297 15 10.2367 15 7.56114C15 7.17891 14.9711 6.9059 14.9165 6.60076C14.8715 6.36628 14.6692 6.19604 14.4347 6.19604V6.19604Z" fill="#167EE6"/>
<path d="M7.50022 12.0642C5.81393 12.0642 4.34284 11.1424 3.55269 9.78052L1.00879 11.2452C2.30322 13.4904 4.72828 15 7.50022 15C8.86211 15 10.1437 14.6338 11.2518 13.9947V13.9914L9.78395 11.4475C9.10943 11.8394 8.33213 12.0642 7.50022 12.0642V12.0642Z" fill="#12B347"/>
<path d="M11.2484 13.9946V13.9914L9.78051 11.4475C9.10921 11.8362 8.33191 12.0642 7.5 12.0642V15C8.86188 15 10.1435 14.6338 11.2484 13.9946Z" fill="#0F993E"/>
<path d="M2.93576 7.50007C2.93576 6.66816 3.16381 5.89086 3.55246 5.21955L1.00857 3.75488C0.366167 4.8566 0 6.13497 0 7.50007C0 8.86516 0.366167 10.1435 1.00857 11.2452L3.55246 9.78058C3.1606 9.10927 2.93576 8.33197 2.93576 7.50007V7.50007Z" fill="#FFD500"/>
<path d="M7.50022 2.93576C8.59873 2.93576 9.6105 3.32762 10.3974 3.97645C10.5934 4.13705 10.876 4.1242 11.0527 3.94754L12.4371 2.56317C12.6394 2.36081 12.6234 2.02998 12.4081 1.84368C11.088 0.69379 9.3696 0 7.50022 0C4.72828 0 2.30322 1.50964 1.00879 3.75482L3.55269 5.21949C4.34284 3.8576 5.81393 2.93576 7.50022 2.93576Z" fill="#FF4B26"/>
<path d="M10.3972 3.97645C10.5931 4.13704 10.8758 4.1242 11.0525 3.94754L12.4368 2.56317C12.6392 2.36081 12.6231 2.02998 12.4079 1.84368C11.0878 0.69379 9.36938 0 7.5 0V2.93576C8.5985 2.93576 9.61028 3.32441 10.3972 3.97645Z" fill="#D93F21"/>
</svg>
