<svg width="20" height="21" viewBox="0 0 20 21" fill="none" xmlns="http://www.w3.org/2000/svg">
<path d="M9 9.56181C9 9.2966 9.10536 9.04224 9.29289 8.85471C9.48043 8.66717 9.73478 8.56181 10 8.56181C10.2652 8.56181 10.5196 8.66717 10.7071 8.85471C10.8946 9.04224 11 9.2966 11 9.56181V15.5618C11 15.827 10.8946 16.0814 10.7071 16.2689C10.5196 16.4565 10.2652 16.5618 10 16.5618C9.73478 16.5618 9.48043 16.4565 9.29289 16.2689C9.10536 16.0814 9 15.827 9 15.5618V9.56181ZM10 4.63281C9.73478 4.63281 9.48043 4.73817 9.29289 4.92571C9.10536 5.11324 9 5.3676 9 5.63281C9 5.89803 9.10536 6.15238 9.29289 6.33992C9.48043 6.52746 9.73478 6.63281 10 6.63281C10.2652 6.63281 10.5196 6.52746 10.7071 6.33992C10.8946 6.15238 11 5.89803 11 5.63281C11 5.3676 10.8946 5.11324 10.7071 4.92571C10.5196 4.73817 10.2652 4.63281 10 4.63281Z" fill="#F8B4CB"/>
<path fill-rule="evenodd" clip-rule="evenodd" d="M10 0.582031C4.477 0.582031 0 5.05903 0 10.582C0 16.105 4.477 20.582 10 20.582C15.523 20.582 20 16.105 20 10.582C20 5.05903 15.523 0.582031 10 0.582031ZM2 10.582C2 12.7038 2.84285 14.7386 4.34315 16.2389C5.84344 17.7392 7.87827 18.582 10 18.582C12.1217 18.582 14.1566 17.7392 15.6569 16.2389C17.1571 14.7386 18 12.7038 18 10.582C18 8.4603 17.1571 6.42547 15.6569 4.92518C14.1566 3.42489 12.1217 2.58203 10 2.58203C7.87827 2.58203 5.84344 3.42489 4.34315 4.92518C2.84285 6.42547 2 8.4603 2 10.582Z" fill="#F8B4CB"/>
</svg>
