<svg width="24" height="25" viewBox="0 0 24 25" fill="none" xmlns="http://www.w3.org/2000/svg">
<path d="M17 2.6543H7C4.23858 2.6543 2 4.89287 2 7.6543V17.6543C2 20.4157 4.23858 22.6543 7 22.6543H17C19.7614 22.6543 22 20.4157 22 17.6543V7.6543C22 4.89287 19.7614 2.6543 17 2.6543Z" stroke="white" stroke-width="2" stroke-linecap="round" stroke-linejoin="round"/>
<path d="M15.9997 12.0244C16.1231 12.8566 15.981 13.7066 15.5935 14.4534C15.206 15.2002 14.5929 15.8058 13.8413 16.184C13.0898 16.5623 12.2382 16.694 11.4075 16.5603C10.5768 16.4266 9.80947 16.0344 9.21455 15.4395C8.61962 14.8446 8.22744 14.0772 8.09377 13.2466C7.96011 12.4159 8.09177 11.5642 8.47003 10.8127C8.84829 10.0612 9.45389 9.44809 10.2007 9.0606C10.9475 8.6731 11.7975 8.53094 12.6297 8.65435C13.4786 8.78024 14.2646 9.17582 14.8714 9.78266C15.4782 10.3895 15.8738 11.1754 15.9997 12.0244Z" stroke="white" stroke-width="2" stroke-linecap="round" stroke-linejoin="round"/>
<path d="M17.5 7.1543H17.51" stroke="white" stroke-width="2" stroke-linecap="round" stroke-linejoin="round"/>
</svg>
