<svg width="19" height="18" viewBox="0 0 19 18" fill="none" xmlns="http://www.w3.org/2000/svg">
<g id="instagram">
<path id="Vector" d="M9.5 7.14C9.13213 7.14 8.77251 7.24909 8.46664 7.45347C8.16076 7.65785 7.92236 7.94834 7.78158 8.28821C7.6408 8.62808 7.60397 9.00206 7.67574 9.36287C7.74751 9.72367 7.92466 10.0551 8.18478 10.3152C8.44491 10.5753 8.77633 10.7525 9.13713 10.8243C9.49794 10.896 9.87192 10.8592 10.2118 10.7184C10.5517 10.5776 10.8422 10.3392 11.0465 10.0334C11.2509 9.72749 11.36 9.36787 11.36 9C11.36 8.75574 11.3119 8.51387 11.2184 8.28821C11.1249 8.06254 10.9879 7.8575 10.8152 7.68478C10.6425 7.51206 10.4375 7.37506 10.2118 7.28158C9.98613 7.18811 9.74426 7.14 9.5 7.14ZM16.9475 5.3025C16.9436 4.72332 16.8369 4.14943 16.6325 3.6075C16.482 3.21094 16.249 2.85082 15.9491 2.55089C15.6492 2.25096 15.2891 2.01804 14.8925 1.8675C14.3506 1.6631 13.7767 1.55645 13.1975 1.5525C12.23 1.5 11.945 1.5 9.5 1.5C7.055 1.5 6.77 1.5 5.8025 1.5525C5.22332 1.55645 4.64943 1.6631 4.1075 1.8675C3.71094 2.01804 3.35082 2.25096 3.05089 2.55089C2.75096 2.85082 2.51804 3.21094 2.3675 3.6075C2.1631 4.14943 2.05645 4.72332 2.0525 5.3025C2 6.27 2 6.555 2 9C2 11.445 2 11.73 2.0525 12.6975C2.06057 13.2787 2.16708 13.8544 2.3675 14.4C2.51737 14.7947 2.7501 15.1528 3.05 15.45C3.34865 15.7517 3.70954 15.9846 4.1075 16.1325C4.64943 16.3369 5.22332 16.4436 5.8025 16.4475C6.77 16.5 7.055 16.5 9.5 16.5C11.945 16.5 12.23 16.5 13.1975 16.4475C13.7767 16.4436 14.3506 16.3369 14.8925 16.1325C15.2905 15.9846 15.6514 15.7517 15.95 15.45C16.2499 15.1528 16.4826 14.7947 16.6325 14.4C16.8367 13.8554 16.9433 13.2791 16.9475 12.6975C17 11.73 17 11.445 17 9C17 6.555 17 6.27 16.9475 5.3025ZM15.0425 11.3025C15.0184 11.7653 14.9197 12.2212 14.75 12.6525C14.6044 13.0123 14.3879 13.3391 14.1135 13.6135C13.8391 13.8879 13.5123 14.1044 13.1525 14.25C12.7171 14.4102 12.2587 14.4988 11.795 14.5125C11.2025 14.5125 11.045 14.5125 9.5 14.5125C7.955 14.5125 7.7975 14.5125 7.205 14.5125C6.7413 14.4988 6.28287 14.4102 5.8475 14.25C5.47558 14.1118 5.13971 13.8913 4.865 13.605C4.59325 13.3359 4.38338 13.0109 4.25 12.6525C4.08917 12.2176 4.00295 11.7586 3.995 11.295C3.995 10.7025 3.995 10.545 3.995 9C3.995 7.455 3.995 7.2975 3.995 6.705C4.00295 6.24137 4.08917 5.78241 4.25 5.3475C4.38821 4.97558 4.60871 4.63971 4.895 4.365C5.16525 4.09472 5.48995 3.88507 5.8475 3.75C6.28287 3.5898 6.7413 3.50116 7.205 3.4875C7.7975 3.4875 7.955 3.4875 9.5 3.4875C11.045 3.4875 11.2025 3.4875 11.795 3.4875C12.2587 3.50116 12.7171 3.5898 13.1525 3.75C13.5244 3.88821 13.8603 4.10871 14.135 4.395C14.4068 4.66406 14.6166 4.9891 14.75 5.3475C14.9102 5.78287 14.9988 6.2413 15.0125 6.705C15.0125 7.2975 15.0125 7.455 15.0125 9C15.0125 10.545 15.065 10.7025 15.0425 11.295V11.3025ZM13.8425 5.7225C13.7532 5.48024 13.6124 5.26023 13.4298 5.07766C13.2473 4.89509 13.0273 4.7543 12.785 4.665C12.4524 4.5497 12.102 4.49384 11.75 4.5C11.165 4.5 11 4.5 9.5 4.5C8 4.5 7.835 4.5 7.25 4.5C6.8962 4.50346 6.5458 4.56948 6.215 4.695C5.97645 4.78024 5.75877 4.91528 5.57644 5.09115C5.39411 5.26702 5.2513 5.47968 5.1575 5.715C5.04858 6.04903 4.99537 6.3987 5 6.75C5 7.335 5 7.5 5 9C5 10.5 5 10.665 5 11.25C5.00744 11.6034 5.07333 11.9531 5.195 12.285C5.2843 12.5273 5.42509 12.7473 5.60766 12.9298C5.79023 13.1124 6.01024 13.2532 6.2525 13.3425C6.5725 13.4602 6.90924 13.526 7.25 13.5375C7.835 13.5375 8 13.5375 9.5 13.5375C11 13.5375 11.165 13.5375 11.75 13.5375C12.1038 13.534 12.4542 13.468 12.785 13.3425C13.0273 13.2532 13.2473 13.1124 13.4298 12.9298C13.6124 12.7473 13.7532 12.5273 13.8425 12.285C13.968 11.9542 14.034 11.6038 14.0375 11.25C14.0375 10.665 14.0375 10.5 14.0375 9C14.0375 7.5 14.0375 7.335 14.0375 6.75C14.0377 6.39585 13.9716 6.04479 13.8425 5.715V5.7225ZM9.5 11.865C9.12412 11.865 8.75192 11.7908 8.40475 11.6468C8.05757 11.5027 7.74223 11.2915 7.47679 11.0254C7.21134 10.7593 7.00102 10.4434 6.85786 10.0958C6.7147 9.74827 6.64151 9.37588 6.6425 9C6.6425 8.43304 6.81072 7.87882 7.12586 7.40751C7.44101 6.93621 7.8889 6.569 8.41285 6.35238C8.9368 6.13575 9.51324 6.07946 10.0692 6.19061C10.6252 6.30177 11.1356 6.57538 11.536 6.97681C11.9364 7.37823 12.2087 7.88943 12.3184 8.44568C12.4281 9.00193 12.3703 9.57822 12.1523 10.1016C11.9343 10.625 11.5659 11.0719 11.0937 11.3858C10.6216 11.6997 10.067 11.8665 9.5 11.865ZM12.5 6.6975C12.3342 6.67995 12.1808 6.60167 12.0693 6.47773C11.9578 6.35379 11.8961 6.19297 11.8961 6.02625C11.8961 5.85953 11.9578 5.69871 12.0693 5.57477C12.1808 5.45083 12.3342 5.37255 12.5 5.355C12.6658 5.37255 12.8192 5.45083 12.9307 5.57477C13.0422 5.69871 13.1039 5.85953 13.1039 6.02625C13.1039 6.19297 13.0422 6.35379 12.9307 6.47773C12.8192 6.60167 12.6658 6.67995 12.5 6.6975Z" fill="#090909"/>
</g>
</svg>
