<svg width="22" height="23" viewBox="0 0 22 23" fill="none" xmlns="http://www.w3.org/2000/svg">
<path d="M19.3602 14.7596C18.6143 13.4766 18.2181 11.6349 18.2181 9.4375C18.2181 7.52297 17.4576 5.68685 16.1038 4.33307C14.75 2.97929 12.9139 2.21875 10.9994 2.21875C9.08482 2.21875 7.2487 2.97929 5.89493 4.33307C4.54115 5.68685 3.7806 7.52297 3.7806 9.4375C3.7806 11.6358 3.38615 13.4766 2.64021 14.7596C2.488 15.0213 2.40732 15.3184 2.40626 15.6212C2.4052 15.9239 2.48381 16.2216 2.6342 16.4844C2.78363 16.7473 3.00052 16.9655 3.26247 17.1166C3.52443 17.2677 3.82196 17.3461 4.12435 17.3438H7.23357C7.31884 18.2836 7.75247 19.1576 8.44927 19.794C9.14606 20.4304 10.0557 20.7833 10.9994 20.7833C11.9431 20.7833 12.8526 20.4304 13.5494 19.794C14.2462 19.1576 14.6799 18.2836 14.7651 17.3438H17.8744C18.1763 17.3456 18.4733 17.267 18.7348 17.1159C18.9962 16.9649 19.2127 16.7469 19.3619 16.4844C19.513 16.222 19.5923 15.9245 19.592 15.6218C19.5917 15.319 19.5118 15.0217 19.3602 14.7596ZM10.9994 18.7188C10.6031 18.7188 10.219 18.582 9.91211 18.3314C9.60517 18.0809 9.39422 17.732 9.31498 17.3438H12.6837C12.6045 17.732 12.3935 18.0809 12.0866 18.3314C11.7797 18.582 11.3956 18.7188 10.9994 18.7188ZM4.6967 15.2812C5.45724 13.7344 5.8431 11.7698 5.8431 9.4375C5.8431 8.06998 6.38635 6.75847 7.35333 5.79148C8.32032 4.8245 9.63183 4.28125 10.9994 4.28125C12.3669 4.28125 13.6784 4.8245 14.6454 5.79148C15.6124 6.75847 16.1556 8.06998 16.1556 9.4375C16.1556 11.769 16.5406 13.7344 17.3011 15.2812H4.6967Z" fill="#F8B4CB"/>
</svg>
