<svg width="50" height="50" viewBox="0 0 50 50" fill="none" xmlns="http://www.w3.org/2000/svg">
<circle cx="25" cy="25" r="25" fill="#090909"/>
<path d="M30.05 33.55L33.7 31.275L30.05 29V33.55ZM19 21.5H31V20H19V21.5ZM31.3125 35.975C30.0208 35.975 28.9167 35.5125 28 34.5875C27.0833 33.6625 26.625 32.5667 26.625 31.3C26.625 29.9928 27.0833 28.8784 27.9998 27.9571C28.9163 27.0357 30.0247 26.575 31.325 26.575C32.6083 26.575 33.7125 27.0357 34.6375 27.9571C35.5625 28.8784 36.025 29.9928 36.025 31.3C36.025 32.5667 35.5625 33.6625 34.6375 34.5875C33.7125 35.5125 32.6042 35.975 31.3125 35.975ZM16 34.975V17.5C16 17.0875 16.1469 16.7344 16.4406 16.4406C16.7344 16.1469 17.0875 16 17.5 16H32.5C32.9125 16 33.2656 16.1469 33.5594 16.4406C33.8531 16.7344 34 17.0875 34 17.5V25.675C33.7639 25.5607 33.5215 25.4655 33.2729 25.3893C33.0243 25.3131 32.7667 25.25 32.5 25.2V17.5H17.5V32.475H25.25C25.2981 32.7779 25.3726 33.0661 25.4735 33.3397C25.5745 33.6132 25.6917 33.8833 25.825 34.15L25 34.975L23.5 33.475L22 34.975L20.5 33.475L19 34.975L17.5 33.475L16 34.975ZM19 30H25.3068C25.3689 29.7333 25.4375 29.475 25.5125 29.225C25.5875 28.975 25.6917 28.7333 25.825 28.5H19V30ZM19 25.75H28.6C28.9667 25.5667 29.35 25.4208 29.75 25.3125C30.15 25.2042 30.5667 25.1333 31 25.1V24.25H19V25.75Z" fill="white"/>
</svg>
