<svg width="24" height="25" viewBox="0 0 24 25" fill="none" xmlns="http://www.w3.org/2000/svg">
<path d="M21.9975 17.0744V20.0744C21.9986 20.3529 21.9416 20.6286 21.83 20.8837C21.7184 21.1389 21.5548 21.368 21.3496 21.5563C21.1443 21.7445 20.9021 21.8879 20.6382 21.9771C20.3744 22.0663 20.0949 22.0995 19.8175 22.0744C16.7403 21.74 13.7845 20.6885 11.1875 19.0044C8.77132 17.4691 6.72283 15.4206 5.18749 13.0044C3.49747 10.3956 2.44573 7.42539 2.11749 4.33439C2.0925 4.05786 2.12537 3.77915 2.21399 3.51602C2.30262 3.25288 2.44506 3.01108 2.63226 2.80601C2.81945 2.60095 3.0473 2.4371 3.30128 2.32492C3.55527 2.21273 3.82983 2.15466 4.10749 2.15439H7.10749C7.5928 2.14962 8.06328 2.32147 8.43125 2.63793C8.79922 2.95438 9.03957 3.39384 9.10749 3.87439C9.23411 4.83446 9.46894 5.77712 9.80749 6.68439C9.94204 7.04232 9.97115 7.43131 9.8914 7.80527C9.81164 8.17924 9.62635 8.5225 9.35749 8.79439L8.08749 10.0644C9.51105 12.5679 11.5839 14.6408 14.0875 16.0644L15.3575 14.7944C15.6294 14.5255 15.9726 14.3402 16.3466 14.2605C16.7206 14.1807 17.1096 14.2099 17.4675 14.3444C18.3748 14.6829 19.3174 14.9178 20.2775 15.0444C20.7633 15.1129 21.2069 15.3576 21.524 15.7319C21.8412 16.1062 22.0097 16.584 21.9975 17.0744Z" stroke="white" stroke-width="1.5" stroke-linecap="round" stroke-linejoin="round"/>
</svg>
