<svg width="30" height="25" viewBox="0 0 30 25" fill="none" xmlns="http://www.w3.org/2000/svg">
<g clip-path="url(#clip0_786_28103)">
<path d="M25.1558 1.58203H4.90653C3.22903 1.58203 1.86914 2.92518 1.86914 4.58203V20.582C1.86914 22.2389 3.22903 23.582 4.90653 23.582H25.1558C26.8333 23.582 28.1932 22.2389 28.1932 20.582V4.58203C28.1932 2.92518 26.8333 1.58203 25.1558 1.58203Z" stroke="black" stroke-width="2" stroke-linejoin="round"/>
<path d="M20.0933 9.58203C21.2116 9.58203 22.1182 8.6866 22.1182 7.58203C22.1182 6.47746 21.2116 5.58203 20.0933 5.58203C18.975 5.58203 18.0684 6.47746 18.0684 7.58203C18.0684 8.6866 18.975 9.58203 20.0933 9.58203Z" stroke="black" stroke-width="2" stroke-miterlimit="10"/>
<path d="M18.0686 17.5694L12.3317 11.9138C11.9666 11.5533 11.476 11.3441 10.96 11.329C10.444 11.3139 9.94167 11.494 9.55564 11.8325L1.86914 18.5825M13.0062 23.5825L20.8111 15.8738C21.168 15.5205 21.6458 15.3118 22.1505 15.2887C22.6553 15.2656 23.1505 15.4297 23.539 15.7488L28.1932 19.5825" stroke="black" stroke-width="2" stroke-linecap="round" stroke-linejoin="round"/>
</g>
<defs>
<clipPath id="clip0_786_28103">
<rect width="28.2857" height="24" fill="white" transform="translate(0.857422 0.582031)"/>
</clipPath>
</defs>
</svg>
