<svg width="25" height="25" viewBox="0 0 25 25" fill="none" xmlns="http://www.w3.org/2000/svg">
<g clip-path="url(#clip0_129_629)">
<path d="M21.6394 12.9568C20.8272 10.4991 18.5329 8.83677 15.9443 8.83105H9.94434C7.35581 8.83677 5.06143 10.4991 4.24932 12.9568C2.81084 12.9824 1.69434 13.7966 1.69434 14.8311C1.69434 15.7293 2.53721 16.4592 3.7 16.6536L4.70869 20.184C4.75454 20.345 4.90176 20.4561 5.06934 20.4561H20.8193C20.9869 20.4561 21.134 20.345 21.18 20.184L22.1887 16.6536C23.3515 16.4592 24.1943 15.7293 24.1943 14.8311C24.1943 13.7966 23.0778 12.9824 21.6394 12.9568ZM20.5366 19.7061H5.35205L4.49307 16.699C5.18374 16.6839 5.84893 16.4368 6.38184 15.9971C6.96191 16.4731 7.69404 16.725 8.44434 16.7061C9.28809 16.7449 10.1078 16.4187 10.6943 15.8107C11.2809 16.4187 12.1006 16.7449 12.9443 16.7061C13.7881 16.7449 14.6078 16.4187 15.1943 15.8107C15.7809 16.4187 16.6006 16.7449 17.4443 16.7061C18.1946 16.725 18.9268 16.4731 19.5068 15.9971C20.0397 16.4368 20.7049 16.6839 21.3956 16.699L20.5366 19.7061ZM21.5693 15.9561C20.8094 15.9561 20.1067 15.6621 19.8206 15.2248C19.7515 15.1188 19.6334 15.0549 19.5068 15.0549C19.3803 15.0549 19.2622 15.1188 19.1931 15.2248C18.907 15.6621 18.2043 15.9561 17.4443 15.9561C16.428 15.9561 15.5693 15.4409 15.5693 14.8311C15.5693 14.6241 15.4015 14.4561 15.1943 14.4561C14.9872 14.4561 14.8193 14.6241 14.8193 14.8311C14.8193 15.4409 13.9606 15.9561 12.9443 15.9561C11.928 15.9561 11.0693 15.4409 11.0693 14.8311C11.0693 14.6241 10.9015 14.4561 10.6943 14.4561C10.4872 14.4561 10.3193 14.6241 10.3193 14.8311C10.3193 15.4409 9.46064 15.9561 8.44434 15.9561C7.68438 15.9561 6.98169 15.6621 6.69561 15.2248C6.62236 15.1246 6.50576 15.0654 6.38184 15.0654C6.25791 15.0654 6.14131 15.1246 6.06807 15.2248C5.78198 15.6621 5.0793 15.9561 4.31934 15.9561C3.30303 15.9561 2.44434 15.4409 2.44434 14.8311C2.44434 14.2214 3.30303 13.7061 4.31934 13.7061C4.36255 13.7061 4.4043 13.709 4.44604 13.7119L4.50317 13.7156C4.67822 13.72 4.83496 13.6078 4.88696 13.4406C5.51494 11.1646 7.58315 9.58618 9.94434 9.58105H15.9443C18.3055 9.58618 20.3737 11.1646 21.0017 13.4406C21.0522 13.6089 21.2099 13.7219 21.3855 13.7156L21.4426 13.7119C21.4844 13.709 21.5261 13.7061 21.5693 13.7061C22.5856 13.7061 23.4443 14.2214 23.4443 14.8311C23.4443 15.4409 22.5856 15.9561 21.5693 15.9561Z" fill="#7DDEC1"/>
<path d="M12.9443 10.3311C12.8449 10.3311 12.7495 10.3705 12.6792 10.4409C12.6087 10.5112 12.5693 10.6067 12.5693 10.7061V12.2061C12.5693 12.4132 12.7372 12.5811 12.9443 12.5811C13.1515 12.5811 13.3193 12.4132 13.3193 12.2061V10.7061C13.3193 10.6067 13.2799 10.5112 13.2095 10.4409C13.1392 10.3705 13.0438 10.3311 12.9443 10.3311Z" fill="#7DDEC1"/>
<path d="M10.7692 10.4812L9.64422 11.9812C9.52015 12.147 9.55369 12.3818 9.71937 12.506C9.88504 12.6301 10.12 12.5967 10.2442 12.4309L11.3692 10.9309C11.4933 10.7652 11.4597 10.5302 11.2941 10.4062C11.1284 10.282 10.8934 10.3155 10.7692 10.4812Z" fill="#7DDEC1"/>
<path d="M15.1192 10.4812C14.995 10.3155 14.76 10.282 14.5944 10.4062C14.4287 10.5302 14.3951 10.7652 14.5192 10.9309L15.6442 12.4309C15.7684 12.5967 16.0034 12.6301 16.1691 12.506C16.3347 12.3818 16.3683 12.147 16.2442 11.9812L15.1192 10.4812Z" fill="#7DDEC1"/>
<path d="M11.6846 4.49482C11.992 4.29048 12.1819 3.95005 12.1943 3.58105C12.1943 3.37407 12.0265 3.20605 11.8193 3.20605C11.6122 3.20605 11.4443 3.37407 11.4443 3.58105C11.4443 3.70776 11.3857 3.76709 11.2041 3.9187C10.8966 4.1229 10.7068 4.46289 10.6943 4.83174C10.7068 5.20073 10.8966 5.54102 11.2041 5.74536C11.3857 5.89668 11.4443 5.95601 11.4443 6.08228C11.4443 6.20283 11.396 6.25879 11.2044 6.41846C10.8968 6.62236 10.7068 6.96235 10.6943 7.33105C10.6943 7.53818 10.8622 7.70605 11.0693 7.70605C11.2765 7.70605 11.4443 7.53818 11.4443 7.33105C11.4443 7.21064 11.4927 7.15454 11.6843 6.99487C11.9919 6.79111 12.1819 6.45112 12.1943 6.08228C12.1819 5.71357 11.992 5.37329 11.6846 5.16938C11.5029 5.01777 11.4443 4.95845 11.4443 4.83174C11.4443 4.70532 11.5029 4.646 11.6846 4.49482Z" fill="#7DDEC1"/>
<path d="M13.5596 4.49482C13.867 4.29048 14.0569 3.95005 14.0693 3.58105C14.0693 3.37407 13.9015 3.20605 13.6943 3.20605C13.4872 3.20605 13.3193 3.37407 13.3193 3.58105C13.3193 3.70776 13.2607 3.76709 13.0791 3.9187C12.7716 4.1229 12.5818 4.46289 12.5693 4.83174C12.5818 5.20073 12.7716 5.54102 13.0791 5.74536C13.2607 5.89668 13.3193 5.95601 13.3193 6.08228C13.3193 6.20283 13.271 6.25879 13.0794 6.41846C12.7718 6.62236 12.5818 6.96235 12.5693 7.33105C12.5693 7.53818 12.7372 7.70605 12.9443 7.70605C13.1515 7.70605 13.3193 7.53818 13.3193 7.33105C13.3193 7.21064 13.3677 7.15454 13.5593 6.99487C13.8669 6.79111 14.0569 6.45112 14.0693 6.08228C14.0569 5.71357 13.867 5.37329 13.5596 5.16938C13.3779 5.01777 13.3193 4.95845 13.3193 4.83174C13.3193 4.70532 13.3779 4.646 13.5596 4.49482Z" fill="#7DDEC1"/>
<path d="M15.4346 4.49482C15.742 4.29048 15.9319 3.95005 15.9443 3.58105C15.9443 3.37407 15.7765 3.20605 15.5693 3.20605C15.3622 3.20605 15.1943 3.37407 15.1943 3.58105C15.1943 3.70776 15.1357 3.76709 14.9541 3.9187C14.6466 4.1229 14.4568 4.46289 14.4443 4.83174C14.4568 5.20073 14.6466 5.54102 14.9541 5.74536C15.1357 5.89668 15.1943 5.95601 15.1943 6.08228C15.1943 6.20283 15.146 6.25879 14.9544 6.41846C14.6468 6.62236 14.4568 6.96235 14.4443 7.33105C14.4443 7.53818 14.6122 7.70605 14.8193 7.70605C15.0265 7.70605 15.1943 7.53818 15.1943 7.33105C15.1943 7.21064 15.2427 7.15454 15.4343 6.99487C15.7419 6.79111 15.9319 6.45112 15.9443 6.08228C15.9319 5.71357 15.742 5.37329 15.4346 5.16938C15.2529 5.01777 15.1943 4.95845 15.1943 4.83174C15.1943 4.70532 15.2529 4.646 15.4346 4.49482Z" fill="#7DDEC1"/>
</g>
<defs>
<clipPath id="clip0_129_629">
<rect width="24" height="24" fill="white" transform="translate(0.944336 0.00610352)"/>
</clipPath>
</defs>
</svg>
