<svg width="60" height="60" viewBox="0 0 60 60" fill="none" xmlns="http://www.w3.org/2000/svg">
<g clip-path="url(#clip0_1_2522)">
<path d="M12.8024 12.1392C11.8172 11.8555 10.832 11.7116 9.87363 11.7116C8.39374 11.7116 7.15889 12.0498 6.20139 12.4639C7.12449 9.08456 9.34201 3.25354 13.7594 2.59689C14.1685 2.53605 14.5038 2.24024 14.6154 1.84205L15.5809 -1.61116C15.6623 -1.9032 15.614 -2.21579 15.4474 -2.46922C15.2809 -2.72265 15.0132 -2.89175 14.7132 -2.93287C14.3871 -2.97734 14.0548 -3 13.7254 -3C8.42311 -3 3.17197 2.53437 0.956123 10.4587C-0.3446 15.1077 -0.726005 22.0972 2.47797 26.4966C4.27087 28.9583 6.88658 30.2729 10.2525 30.4042C10.2664 30.4047 10.2798 30.4051 10.2936 30.4051C14.4467 30.4051 18.1294 27.6081 19.2497 23.604C19.919 21.2102 19.6165 18.6998 18.3971 16.5335C17.1908 14.3915 15.2041 12.8302 12.8024 12.1392Z" fill="#FFD9E4"/>
<path d="M38.7991 16.5339C37.5928 14.3915 35.606 12.8302 33.2043 12.1392C32.2191 11.8555 31.2339 11.7116 30.276 11.7116C28.7961 11.7116 27.5609 12.0498 26.6034 12.4639C27.5265 9.08456 29.744 3.25354 34.1618 2.59688C34.5709 2.53604 34.9057 2.24023 35.0178 1.84205L35.9833 -1.61116C36.0647 -1.9032 36.0164 -2.21579 35.8498 -2.46922C35.6837 -2.72265 35.416 -2.89175 35.1155 -2.93287C34.7899 -2.97734 34.4576 -3 34.1278 -3C28.8255 -3 23.5744 2.53436 21.3581 10.4587C20.0578 15.1077 19.6764 22.0972 22.8808 26.4975C24.6733 28.9588 27.2894 30.2737 30.6549 30.4047C30.6687 30.4051 30.6822 30.4055 30.6964 30.4055C34.8491 30.4055 38.5322 27.6085 39.6525 23.6044C40.3209 21.2106 40.018 18.6998 38.7991 16.5339Z" fill="#FFD9E4"/>
</g>
<defs>
<clipPath id="clip0_1_2522">
<rect width="60.0006" height="60" fill="white"/>
</clipPath>
</defs>
</svg>
