<svg width="22" height="22" viewBox="0 0 22 22" fill="none" xmlns="http://www.w3.org/2000/svg">
<path d="M5.6682 1C3.09553 1 1.00153 3.39267 1.00153 6.33333C0.978608 7.30042 1.21354 8.25618 1.68218 9.10245C2.15083 9.94871 2.83631 10.655 3.6682 11.1487V19C3.6682 19.5304 3.87891 20.0391 4.25398 20.4142C4.62906 20.7893 5.13776 21 5.6682 21C6.19863 21 6.70734 20.7893 7.08241 20.4142C7.45748 20.0391 7.6682 19.5304 7.6682 19V11.1487C8.50009 10.655 9.18556 9.94871 9.65421 9.10245C10.1229 8.25618 10.3578 7.30042 10.3349 6.33333C10.3349 3.39267 8.24086 1 5.6682 1ZM6.74686 10.1127C6.62495 10.1631 6.52072 10.2485 6.44738 10.3581C6.37404 10.4678 6.33488 10.5967 6.33486 10.7287V19C6.33486 19.1768 6.26463 19.3464 6.1396 19.4714C6.01458 19.5964 5.84501 19.6667 5.6682 19.6667C5.49139 19.6667 5.32182 19.5964 5.19679 19.4714C5.07177 19.3464 5.00153 19.1768 5.00153 19V10.7287C5.00151 10.5967 4.96235 10.4678 4.88901 10.3581C4.81567 10.2485 4.71145 10.1631 4.58953 10.1127C3.88678 9.77037 3.29915 9.23049 2.89866 8.55919C2.49818 7.88789 2.30224 7.11434 2.33486 6.33333C2.33486 4.12733 3.8302 2.33333 5.6682 2.33333C7.5062 2.33333 9.00153 4.12733 9.00153 6.33333C9.03415 7.11434 8.83821 7.88789 8.43773 8.55919C8.03725 9.23049 7.44962 9.77037 6.74686 10.1127Z" fill="#F8B4CB" stroke="#F8B4CB" stroke-width="0.5"/>
<path d="M20.3346 1C20.1578 1 19.9883 1.07024 19.8632 1.19526C19.7382 1.32029 19.668 1.48986 19.668 1.66667V8.33333C19.668 8.86377 19.4573 9.37247 19.0822 9.74755C18.7071 10.1226 18.1984 10.3333 17.668 10.3333C17.4912 10.3333 17.3216 10.4036 17.1966 10.5286C17.0715 10.6536 17.0013 10.8232 17.0013 11V19C17.0013 19.1768 16.9311 19.3464 16.806 19.4714C16.681 19.5964 16.5114 19.6667 16.3346 19.6667C16.1578 19.6667 15.9883 19.5964 15.8632 19.4714C15.7382 19.3464 15.668 19.1768 15.668 19V11C15.668 10.8232 15.5977 10.6536 15.4727 10.5286C15.3477 10.4036 15.1781 10.3333 15.0013 10.3333C14.4709 10.3333 13.9622 10.1226 13.5871 9.74755C13.212 9.37247 13.0013 8.86377 13.0013 8.33333V1.66667C13.0013 1.48986 12.9311 1.32029 12.806 1.19526C12.681 1.07024 12.5114 1 12.3346 1C12.1578 1 11.9883 1.07024 11.8632 1.19526C11.7382 1.32029 11.668 1.48986 11.668 1.66667V8.33333C11.6688 9.1015 11.9345 9.84588 12.4203 10.441C12.9061 11.036 13.5822 11.4454 14.3346 11.6V19C14.3346 19.5304 14.5453 20.0391 14.9204 20.4142C15.2955 20.7893 15.8042 21 16.3346 21C16.8651 21 17.3738 20.7893 17.7488 20.4142C18.1239 20.0391 18.3346 19.5304 18.3346 19V11.6C19.0871 11.4454 19.7632 11.036 20.249 10.441C20.7347 9.84588 21.0005 9.1015 21.0013 8.33333V1.66667C21.0013 1.48986 20.9311 1.32029 20.806 1.19526C20.681 1.07024 20.5114 1 20.3346 1Z" fill="#F8B4CB" stroke="#F8B4CB" stroke-width="0.5"/>
<path d="M15.0026 9C15.1794 9 15.349 8.92976 15.474 8.80474C15.599 8.67971 15.6693 8.51014 15.6693 8.33333V1.66667C15.6693 1.48986 15.599 1.32029 15.474 1.19526C15.349 1.07024 15.1794 1 15.0026 1C14.8258 1 14.6562 1.07024 14.5312 1.19526C14.4062 1.32029 14.3359 1.48986 14.3359 1.66667V8.33333C14.3359 8.51014 14.4062 8.67971 14.5312 8.80474C14.6562 8.92976 14.8258 9 15.0026 9Z" fill="#F8B4CB" stroke="#F8B4CB" stroke-width="0.5"/>
<path d="M17.6706 9C17.8474 9 18.017 8.92976 18.142 8.80474C18.267 8.67971 18.3372 8.51014 18.3372 8.33333V1.66667C18.3372 1.48986 18.267 1.32029 18.142 1.19526C18.017 1.07024 17.8474 1 17.6706 1C17.4938 1 17.3242 1.07024 17.1992 1.19526C17.0741 1.32029 17.0039 1.48986 17.0039 1.66667V8.33333C17.0039 8.51014 17.0741 8.67971 17.1992 8.80474C17.3242 8.92976 17.4938 9 17.6706 9Z" fill="#F8B4CB" stroke="#F8B4CB" stroke-width="0.5"/>
</svg>
