<svg width="22" height="22" viewBox="0 0 22 22" fill="none" xmlns="http://www.w3.org/2000/svg">
<path d="M9.51045 11.179H10.8202V12.4889C10.8202 12.5874 10.9001 12.6673 10.9987 12.6673C11.0972 12.6673 11.1771 12.5874 11.1771 12.4889V11.179H12.4869C12.5854 11.179 12.6653 11.0991 12.6653 11.0006C12.6653 10.9021 12.5854 10.8222 12.4869 10.8222H11.1771V9.51241C11.1771 9.41387 11.0972 9.33398 10.9987 9.33398C10.9001 9.33398 10.8202 9.41387 10.8202 9.51241V10.8222H9.51045C9.41192 10.8222 9.33203 10.9021 9.33203 11.0006C9.33203 11.0991 9.41192 11.179 9.51045 11.179Z" fill="#F8B4CB" stroke="#F8B4CB"/>
<path d="M10.9046 16.3795C10.9354 16.3923 10.9682 16.3988 11.001 16.3988C11.0338 16.3988 11.0665 16.3923 11.0974 16.3794C11.2997 16.2949 16.0607 14.2635 16.9299 10.36C17.4482 8.03223 16.1871 6.37733 14.7961 5.8246C13.4 5.27028 11.9461 5.76198 11.001 7.07777C10.0557 5.76173 8.60183 5.26943 7.20547 5.82472C5.81473 6.37733 4.55375 8.03235 5.07206 10.36C5.94083 14.2635 10.7023 16.2949 10.9046 16.3795ZM7.39017 6.28932C7.6846 6.17238 8.01431 6.10231 8.35769 6.10231C9.1896 6.10231 10.1018 6.5132 10.7863 7.66175C10.8764 7.81312 11.1256 7.81312 11.2157 7.66175C12.1825 6.0392 13.6039 5.88905 14.6116 6.28932C15.8118 6.76612 16.8965 8.20936 16.4419 10.2513C15.6946 13.6072 11.6781 15.5667 11.001 15.8753C10.3242 15.567 6.30692 13.6073 5.56009 10.2513C5.10551 8.20948 6.1901 6.76625 7.39017 6.28932Z" fill="#F8B4CB" stroke="#F8B4CB"/>
<path d="M2.9154 16.7012C2.96349 16.7012 3.0122 16.6873 3.05505 16.6584C3.16955 16.5811 3.19958 16.4257 3.12231 16.3113C2.06103 14.7403 1.5 12.9036 1.5 11C1.5 5.7617 5.7617 1.5 11 1.5C13.1174 1.5 15.1731 2.20849 16.8355 3.50326L15.4385 3.50622C15.3005 3.50646 15.1888 3.61864 15.189 3.7567C15.1893 3.89464 15.3012 4.00621 15.439 4.00621H15.4395L17.5272 4.00182C17.6649 4.00158 17.7764 3.89 17.7767 3.75231L17.7812 1.65674C17.7814 1.51867 17.6697 1.40649 17.5317 1.40625H17.5312C17.3934 1.40625 17.2814 1.51782 17.2812 1.65576L17.2778 3.2187C15.5046 1.78727 13.2871 1 11 1C5.48594 1 1 5.48594 1 11C1 13.0037 1.59057 14.9372 2.708 16.5911C2.75634 16.6627 2.83508 16.7012 2.9154 16.7012Z" fill="#F8B4CB" stroke="#F8B4CB" stroke-width="1.2"/>
<path d="M20.4981 11.0001C20.4981 16.2383 16.2364 20.5 10.9981 20.5C8.79684 20.5 6.68235 19.7418 4.98889 18.3569L6.43639 18.3538C6.57445 18.3535 6.68615 18.2414 6.6859 18.1033C6.68566 17.9654 6.57372 17.8538 6.4359 17.8538H6.43542L4.34778 17.8582C4.21008 17.8584 4.09851 17.97 4.09827 18.1077L4.09375 20.2033C4.09351 20.3413 4.2052 20.4535 4.34326 20.4538H4.34375C4.48157 20.4538 4.5935 20.3422 4.59375 20.2042L4.59707 18.6822C6.39197 20.1795 8.64824 21 10.9981 21C16.5122 21 20.9981 16.5141 20.9981 11.0001C20.9981 8.99628 20.4075 7.06281 19.2901 5.40889C19.2128 5.29463 19.0573 5.26436 18.9431 5.34163C18.8286 5.4189 18.7985 5.57429 18.8758 5.68867C19.9371 7.25971 20.4981 9.09638 20.4981 11.0001Z" fill="#F8B4CB" stroke="#F8B4CB" stroke-width="1.2"/>
</svg>
