<svg width="27" height="22" viewBox="0 0 27 22" fill="none" xmlns="http://www.w3.org/2000/svg">
<path d="M8.65128 21C9.7282 21 10.7179 20.7897 11.6154 20.4051C12.5846 20.7949 13.6308 21 14.7333 21C15.8205 21 16.959 20.8103 18.1231 20.4308C23.1538 18.7846 27.7641 13.8359 26.4051 9.67692C25.1538 5.85641 19.4103 4.50256 14.6513 5.55897C13.2769 2.92308 11.1436 1 8.64615 1C4.26667 1 1 6.92308 1 12.2154C1 17.3846 4.14872 21 8.65128 21ZM25.4359 9.99487C26.5949 13.5385 22.2872 17.9949 17.8051 19.4564C16.0308 20.0359 14.3385 20.1231 12.8308 19.7282C14.9795 18.241 16.2974 15.559 16.2974 12.2103C16.2974 10.2872 15.8615 8.28205 15.1026 6.50769C19.2974 5.66154 24.3897 6.81539 25.4359 9.99487ZM8.65128 2.02564C10.8154 2.02564 12.6974 3.87179 13.8974 6.34359C13.8974 6.34872 13.9026 6.35385 13.9026 6.35897C14.7641 8.13846 15.2718 10.2462 15.2718 12.2154C15.2718 15.6103 13.7692 18.241 11.4 19.3692C10.5795 19.759 9.65641 19.9744 8.65128 19.9744C4.75385 19.9744 2.03077 16.7795 2.03077 12.2103C2.02564 7.50256 4.92308 2.02564 8.65128 2.02564Z" fill="#F8B4CB" stroke="#F8B4CB" stroke-width="0.5"/>
<path d="M6.28155 4.7943C6.06104 4.61481 5.73796 4.64558 5.55847 4.86609C4.0354 6.72763 3.05078 9.60968 3.05078 12.2148C3.05078 12.4969 3.28155 12.7276 3.5636 12.7276C3.84565 12.7276 4.07642 12.4969 4.07642 12.2148C4.07642 9.83532 4.96873 7.20455 6.34822 5.51737C6.53283 5.29686 6.49693 4.97378 6.28155 4.7943Z" fill="#F8B4CB" stroke="#F8B4CB" stroke-width="0.5"/>
</svg>
