<svg width="29" height="33" viewBox="0 0 29 33" fill="none" xmlns="http://www.w3.org/2000/svg">
<path d="M24.8341 0.5H5.1325C4.02717 0.5 2.96711 0.939091 2.18552 1.72068C1.40393 2.50226 0.964844 3.56232 0.964844 4.66765V28.3323C0.964844 29.4377 1.40393 30.4977 2.18552 31.2793C2.96711 32.0609 4.02717 32.5 5.1325 32.5H24.8341C25.9395 32.5 26.9995 32.0609 27.7811 31.2793C28.5627 30.4977 29.0018 29.4377 29.0018 28.3323V4.66765C29.0018 3.56232 28.5627 2.50226 27.7811 1.72068C26.9995 0.939091 25.9395 0.5 24.8341 0.5ZM26.7285 28.3323C26.7285 28.8348 26.5289 29.3166 26.1737 29.6719C25.8184 30.0271 25.3366 30.2267 24.8341 30.2267H5.1325C4.63007 30.2267 4.14823 30.0271 3.79296 29.6719C3.4377 29.3166 3.23811 28.8348 3.23811 28.3323V4.66765C3.23811 4.16523 3.4377 3.68339 3.79296 3.32812C4.14823 2.97285 4.63007 2.77327 5.1325 2.77327H24.8341C25.3366 2.77327 25.8184 2.97285 26.1737 3.32812C26.5289 3.68339 26.7285 4.16523 26.7285 4.66765V28.3323Z" fill="#7DDEC1"/>
<path d="M8.29333 15.5527H6.41788C6.11643 15.5527 5.82732 15.6725 5.61416 15.8856C5.401 16.0988 5.28125 16.3879 5.28125 16.6894C5.28125 16.9908 5.401 17.2799 5.61416 17.4931C5.82732 17.7062 6.11643 17.826 6.41788 17.826H8.29333C8.59478 17.826 8.88389 17.7062 9.09705 17.4931C9.31021 17.2799 9.42996 16.9908 9.42996 16.6894C9.42996 16.3879 9.31021 16.0988 9.09705 15.8856C8.88389 15.6725 8.59478 15.5527 8.29333 15.5527Z" fill="#7DDEC1"/>
<path d="M23.5462 15.5527H12.4413C12.1399 15.5527 11.8508 15.6725 11.6376 15.8856C11.4244 16.0988 11.3047 16.3879 11.3047 16.6894C11.3047 16.9908 11.4244 17.2799 11.6376 17.4931C11.8508 17.7062 12.1399 17.826 12.4413 17.826H23.5462C23.8477 17.826 24.1368 17.7062 24.3499 17.4931C24.5631 17.2799 24.6829 16.9908 24.6829 16.6894C24.6829 16.3879 24.5631 16.0988 24.3499 15.8856C24.1368 15.6725 23.8477 15.5527 23.5462 15.5527Z" fill="#7DDEC1"/>
<path d="M8.29333 8.73242H6.41788C6.11643 8.73242 5.82732 8.85217 5.61416 9.06533C5.401 9.27849 5.28125 9.5676 5.28125 9.86905C5.28125 10.1705 5.401 10.4596 5.61416 10.6728C5.82732 10.8859 6.11643 11.0057 6.41788 11.0057H8.29333C8.59478 11.0057 8.88389 10.8859 9.09705 10.6728C9.31021 10.4596 9.42996 10.1705 9.42996 9.86905C9.42996 9.5676 9.31021 9.27849 9.09705 9.06533C8.88389 8.85217 8.59478 8.73242 8.29333 8.73242Z" fill="#7DDEC1"/>
<path d="M23.5462 8.73242H12.4413C12.1399 8.73242 11.8508 8.85217 11.6376 9.06533C11.4244 9.27849 11.3047 9.5676 11.3047 9.86905C11.3047 10.1705 11.4244 10.4596 11.6376 10.6728C11.8508 10.8859 12.1399 11.0057 12.4413 11.0057H23.5462C23.8477 11.0057 24.1368 10.8859 24.3499 10.6728C24.5631 10.4596 24.6829 10.1705 24.6829 9.86905C24.6829 9.5676 24.5631 9.27849 24.3499 9.06533C24.1368 8.85217 23.8477 8.73242 23.5462 8.73242Z" fill="#7DDEC1"/>
<path d="M8.29333 22.373H6.41788C6.11643 22.373 5.82732 22.4928 5.61416 22.706C5.401 22.9191 5.28125 23.2082 5.28125 23.5097C5.28125 23.8111 5.401 24.1002 5.61416 24.3134C5.82732 24.5266 6.11643 24.6463 6.41788 24.6463H8.29333C8.59478 24.6463 8.88389 24.5266 9.09705 24.3134C9.31021 24.1002 9.42996 23.8111 9.42996 23.5097C9.42996 23.2082 9.31021 22.9191 9.09705 22.706C8.88389 22.4928 8.59478 22.373 8.29333 22.373Z" fill="#7DDEC1"/>
<path d="M23.5462 22.373H12.4413C12.1399 22.373 11.8508 22.4928 11.6376 22.706C11.4244 22.9191 11.3047 23.2082 11.3047 23.5097C11.3047 23.8111 11.4244 24.1002 11.6376 24.3134C11.8508 24.5266 12.1399 24.6463 12.4413 24.6463H23.5462C23.8477 24.6463 24.1368 24.5266 24.3499 24.3134C24.5631 24.1002 24.6829 23.8111 24.6829 23.5097C24.6829 23.2082 24.5631 22.9191 24.3499 22.706C24.1368 22.4928 23.8477 22.373 23.5462 22.373Z" fill="#7DDEC1"/>
</svg>
