<svg width="50" height="50" viewBox="0 0 50 50" fill="none" xmlns="http://www.w3.org/2000/svg">
<circle cx="25" cy="25" r="25" fill="#090909"/>
<path d="M27.5022 27.75C27.9841 27.75 28.3958 27.5784 28.7375 27.2353C29.0792 26.8921 29.25 26.4796 29.25 25.9978C29.25 25.5159 29.0786 25.1042 28.7359 24.7625C28.3932 24.4208 27.9812 24.25 27.5 24.25C27.2559 24.25 27.0241 24.2958 26.8045 24.3875C26.5848 24.4792 26.3917 24.6167 26.225 24.8L23.225 23.3C23.2417 23.25 23.25 23.2 23.25 23.15V22.85C23.25 22.8 23.2417 22.75 23.225 22.7L26.225 21.2C26.3917 21.3833 26.5848 21.5208 26.8045 21.6125C27.0241 21.7042 27.2559 21.75 27.5 21.75C27.9812 21.75 28.3932 21.5784 28.7359 21.2353C29.0786 20.8921 29.25 20.4796 29.25 19.9978C29.25 19.5159 29.0784 19.1042 28.7353 18.7625C28.3921 18.4208 27.9796 18.25 27.4978 18.25C27.0159 18.25 26.6042 18.4214 26.2625 18.7641C25.9208 19.1068 25.75 19.5188 25.75 20V20.15C25.75 20.2 25.7583 20.25 25.775 20.3L22.775 21.8C22.6083 21.6167 22.4152 21.4792 22.1955 21.3875C21.9759 21.2958 21.7441 21.25 21.5 21.25C21.0188 21.25 20.6068 21.4216 20.2641 21.7647C19.9214 22.1079 19.75 22.5204 19.75 23.0022C19.75 23.4841 19.9214 23.8958 20.2641 24.2375C20.6068 24.5792 21.0188 24.75 21.5 24.75C21.7441 24.75 21.9759 24.7042 22.1955 24.6125C22.4152 24.5208 22.6083 24.3833 22.775 24.2L25.775 25.7C25.7583 25.75 25.75 25.8 25.75 25.85V26C25.75 26.4812 25.9216 26.8932 26.2647 27.2359C26.6079 27.5786 27.0204 27.75 27.5022 27.75ZM15 35V16.5C15 16.1 15.15 15.75 15.45 15.45C15.75 15.15 16.1 15 16.5 15H33.5C33.9 15 34.25 15.15 34.55 15.45C34.85 15.75 35 16.1 35 16.5V29.5C35 29.9 34.85 30.25 34.55 30.55C34.25 30.85 33.9 31 33.5 31H19L15 35ZM18.35 29.5H33.5V16.5H16.5V31.5L18.35 29.5Z" fill="white"/>
</svg>
