<svg width="104" height="103" viewBox="0 0 104 103" fill="none" xmlns="http://www.w3.org/2000/svg">
<path fill-rule="evenodd" clip-rule="evenodd" d="M52 99C64.5978 99 76.6796 93.9956 85.5876 85.0876C94.4956 76.1796 99.5 64.0978 99.5 51.5C99.5 38.9022 94.4956 26.8204 85.5876 17.9124C76.6796 9.00445 64.5978 4 52 4C39.4022 4 27.3204 9.00445 18.4124 17.9124C9.50445 26.8204 4.5 38.9022 4.5 51.5C4.5 64.0978 9.50445 76.1796 18.4124 85.0876C27.3204 93.9956 39.4022 99 52 99Z" stroke="#7DDEC1" stroke-width="8" stroke-linecap="round" stroke-linejoin="round"/>
<path d="M37.1562 42.5938C40.4354 42.5938 43.0938 39.9354 43.0938 36.6562C43.0938 33.3771 40.4354 30.7188 37.1562 30.7188C33.8771 30.7188 31.2188 33.3771 31.2188 36.6562C31.2188 39.9354 33.8771 42.5938 37.1562 42.5938Z" fill="#7DDEC1"/>
<path d="M66.8438 42.5938C70.1229 42.5938 72.7812 39.9354 72.7812 36.6562C72.7812 33.3771 70.1229 30.7188 66.8438 30.7188C63.5646 30.7188 60.9062 33.3771 60.9062 36.6562C60.9062 39.9354 63.5646 42.5938 66.8438 42.5938Z" fill="#7DDEC1"/>
<path d="M69.8125 57.4375C66.2322 65.3522 60.2947 69.3125 52 69.3125C43.7053 69.3125 37.7678 65.3522 34.1875 57.4375" stroke="#7DDEC1" stroke-width="8" stroke-linecap="round" stroke-linejoin="round"/>
</svg>
