<svg width="24" height="21" viewBox="0 0 24 21" fill="none" xmlns="http://www.w3.org/2000/svg">
<g clip-path="url(#clip0_1167_2356)">
<path d="M8 16.609C8 16.1363 7.82407 15.7272 7.47222 15.3817C7.12037 15.0363 6.7037 14.8635 6.22222 14.8635C5.74074 14.8635 5.32407 15.0363 4.97222 15.3817C4.62037 15.7272 4.44444 16.1363 4.44444 16.609C4.44444 17.0817 4.62037 17.4908 4.97222 17.8363C5.32407 18.1817 5.74074 18.3544 6.22222 18.3544C6.7037 18.3544 7.12037 18.1817 7.47222 17.8363C7.82407 17.4908 8 17.0817 8 16.609ZM2.66667 9.62718H8V6.13627H5.80556C5.68519 6.13627 5.58333 6.17718 5.5 6.25899L2.79167 8.91808C2.70833 8.9999 2.66667 9.0999 2.66667 9.21808V9.62718ZM20.4444 16.609C20.4444 16.1363 20.2685 15.7272 19.9167 15.3817C19.5648 15.0363 19.1481 14.8635 18.6667 14.8635C18.1852 14.8635 17.7685 15.0363 17.4167 15.3817C17.0648 15.7272 16.8889 16.1363 16.8889 16.609C16.8889 17.0817 17.0648 17.4908 17.4167 17.8363C17.7685 18.1817 18.1852 18.3544 18.6667 18.3544C19.1481 18.3544 19.5648 18.1817 19.9167 17.8363C20.2685 17.4908 20.4444 17.0817 20.4444 16.609ZM24 1.77263V15.7363C24 15.8726 23.9815 15.9931 23.9444 16.0976C23.9074 16.2022 23.8449 16.2863 23.7569 16.3499C23.669 16.4135 23.5926 16.4658 23.5278 16.5067C23.463 16.5476 23.3542 16.5749 23.2014 16.5885C23.0486 16.6022 22.9444 16.6113 22.8889 16.6158C22.8333 16.6204 22.7153 16.6204 22.5347 16.6158C22.3542 16.6113 22.25 16.609 22.2222 16.609C22.2222 17.5726 21.875 18.3954 21.1806 19.0772C20.4861 19.759 19.6481 20.0999 18.6667 20.0999C17.6852 20.0999 16.8472 19.759 16.1528 19.0772C15.4583 18.3954 15.1111 17.5726 15.1111 16.609H9.77778C9.77778 17.5726 9.43056 18.3954 8.73611 19.0772C8.04167 19.759 7.2037 20.0999 6.22222 20.0999C5.24074 20.0999 4.40278 19.759 3.70833 19.0772C3.01389 18.3954 2.66667 17.5726 2.66667 16.609H1.77778C1.75 16.609 1.64583 16.6113 1.46528 16.6158C1.28472 16.6204 1.16667 16.6204 1.11111 16.6158C1.05556 16.6113 0.951389 16.6022 0.798611 16.5885C0.645833 16.5749 0.537037 16.5476 0.472222 16.5067C0.407407 16.4658 0.331019 16.4135 0.243056 16.3499C0.155093 16.2863 0.0925926 16.2022 0.0555556 16.0976C0.0185185 15.9931 0 15.8726 0 15.7363C0 15.4999 0.087963 15.2954 0.263889 15.1226C0.439815 14.9499 0.648148 14.8635 0.888889 14.8635V10.4999C0.888889 10.4272 0.886574 10.2681 0.881944 10.0226C0.877315 9.77718 0.877315 9.60445 0.881944 9.50445C0.886574 9.40445 0.898148 9.24763 0.916667 9.03399C0.935185 8.82036 0.965278 8.65218 1.00694 8.52945C1.04861 8.40672 1.11343 8.26808 1.20139 8.11354C1.28935 7.95899 1.39352 7.82263 1.51389 7.70445L4.26389 5.00445C4.43982 4.83172 4.67361 4.68627 4.96528 4.56808C5.25694 4.4499 5.52778 4.39081 5.77778 4.39081H8V1.77263C8 1.53627 8.08796 1.33172 8.26389 1.15899C8.43982 0.986266 8.64815 0.899902 8.88889 0.899902H23.1111C23.3519 0.899902 23.5602 0.986266 23.7361 1.15899C23.912 1.33172 24 1.53627 24 1.77263Z" fill="#090909"/>
</g>
<defs>
<clipPath id="clip0_1167_2356">
<rect width="24" height="19.2" fill="white" transform="translate(0 0.899902)"/>
</clipPath>
</defs>
</svg>
