<svg width="24" height="25" viewBox="0 0 24 25" fill="none" xmlns="http://www.w3.org/2000/svg">
<path d="M23 3.65434C22.0424 4.32982 20.9821 4.84645 19.86 5.18434C19.2577 4.49185 18.4573 4.00103 17.567 3.77827C16.6767 3.5555 15.7395 3.61154 14.8821 3.9388C14.0247 4.26605 13.2884 4.84874 12.773 5.60806C12.2575 6.36737 11.9877 7.26668 12 8.18434V9.18434C10.2426 9.22991 8.50127 8.84016 6.93101 8.04979C5.36074 7.25942 4.01032 6.09298 3 4.65434C3 4.65434 -1 13.6543 8 17.6543C5.94053 19.0523 3.48716 19.7533 1 19.6543C10 24.6543 21 19.6543 21 8.15434C20.9991 7.8758 20.9723 7.59794 20.92 7.32434C21.9406 6.31784 22.6608 5.04706 23 3.65434Z" stroke="white" stroke-width="2" stroke-linecap="round" stroke-linejoin="round"/>
</svg>
