<svg width="19" height="18" viewBox="0 0 19 18" fill="none" xmlns="http://www.w3.org/2000/svg">
<g id="twitter">
<path id="Vector" d="M17 4.35C16.4363 4.59458 15.8401 4.75625 15.23 4.83C15.8736 4.4455 16.356 3.84059 16.5875 3.1275C15.9827 3.48755 15.3206 3.74123 14.63 3.8775C14.1684 3.37693 13.5537 3.04373 12.8824 2.93014C12.211 2.81656 11.5209 2.92902 10.9203 3.2499C10.3198 3.57077 9.8427 4.0819 9.56393 4.70313C9.28516 5.32436 9.22047 6.02055 9.38 6.6825C8.15707 6.62065 6.96083 6.30222 5.86899 5.7479C4.77715 5.19358 3.81413 4.41577 3.0425 3.465C2.77185 3.93763 2.62964 4.47287 2.63 5.0175C2.62904 5.52329 2.75316 6.02147 2.99132 6.46768C3.22947 6.91389 3.57426 7.29429 3.995 7.575C3.50598 7.5617 3.02741 7.43048 2.6 7.1925V7.23C2.60367 7.93867 2.852 8.62432 3.30299 9.17098C3.75398 9.71763 4.37994 10.0917 5.075 10.23C4.80744 10.3114 4.52966 10.3544 4.25 10.3575C4.05642 10.3552 3.86332 10.3377 3.6725 10.305C3.87043 10.9146 4.25347 11.4474 4.76831 11.8291C5.28315 12.2109 5.90418 12.4227 6.545 12.435C5.4629 13.2865 4.12691 13.7511 2.75 13.755C2.4993 13.7558 2.2488 13.7408 2 13.71C3.40582 14.6177 5.04411 15.0995 6.7175 15.0975C7.87227 15.1095 9.01785 14.8913 10.0873 14.4556C11.1568 14.0199 12.1288 13.3754 12.9464 12.5599C13.764 11.7443 14.411 10.774 14.8494 9.70568C15.2879 8.63732 15.509 7.4923 15.5 6.3375C15.5 6.21 15.5 6.075 15.5 5.94C16.0885 5.50111 16.5961 4.96307 17 4.35Z" fill="#090909"/>
</g>
</svg>
