<svg width="49" height="48" viewBox="0 0 49 48" fill="none" xmlns="http://www.w3.org/2000/svg">
<g clip-path="url(#clip0_478_4061)">
<path d="M24.5 9.02734C18.9622 9.02734 14.5817 10.4743 9.88018 13.163C3.97068 16.8829 0.5 22.3934 0.5 26.607C0.5 30.0188 3.0728 33.1789 7.74438 35.5059C12.2338 37.7418 18.1842 38.9729 24.5 38.9729C30.8158 38.9729 36.7665 37.7415 41.2559 35.5059C45.9274 33.1789 48.5 30.0188 48.5 26.607C48.5 19.6082 38.9276 9.02734 24.5 9.02734ZM24.1979 19.6092C22.7157 18.0689 20.9348 16.7358 18.8752 15.6381C19.6377 15.0876 20.4496 14.5656 21.3129 14.0743C22.2707 13.5289 23.2048 13.0734 24.0708 12.6951C25.0072 13.0938 26.0305 13.5847 27.0833 14.1839C27.9139 14.6567 28.6973 15.1575 29.4344 15.6849C27.4116 16.7735 25.6592 18.0906 24.1979 19.6092ZM19.4377 11.1495C19.4937 11.1753 20.5407 11.4038 21.9365 11.8781C21.4822 12.1056 21.0174 12.3514 20.5456 12.6188C19.3527 13.2951 18.2429 14.0351 17.2196 14.8328C15.5775 14.1057 14.0663 13.6378 12.9022 13.3428C14.9447 12.3292 17.1441 11.5897 19.4377 11.1495ZM27.8501 12.7287C27.2874 12.4096 26.7349 12.1209 26.1986 11.8586C27.7415 11.3183 28.9009 11.0664 28.9562 11.0414C31.3931 11.4501 33.7318 12.1933 35.8981 13.2439C34.6716 13.5335 32.9599 14.0351 31.0857 14.8733C30.0875 14.1023 29.0081 13.3852 27.8501 12.7287ZM24.6535 10.673C24.4615 10.7478 24.2649 10.8265 24.0632 10.9093C23.8723 10.8326 23.6854 10.7598 23.5037 10.6908C23.835 10.6786 24.6023 10.6728 24.6535 10.673ZM40.5227 34.0339C36.2564 36.1589 30.5661 37.3289 24.5 37.3289C18.4339 37.3289 12.7436 36.1587 8.47735 34.0339C4.39355 31.9999 2.14424 29.362 2.14424 26.607C2.14424 23.5112 4.49269 19.5307 8.12731 16.4659C8.94845 15.7733 9.81758 15.139 10.7269 14.5642C11.475 14.6862 13.4539 15.0718 15.8075 16.0218C12.8617 18.6964 10.7876 21.9218 9.71406 25.5472C9.5852 25.9822 9.83341 26.4397 10.269 26.5685C10.3469 26.5919 10.4256 26.6029 10.5028 26.6029C10.8575 26.6029 11.1849 26.3712 11.2908 26.0139C12.358 22.4104 14.4219 19.3098 17.4459 16.7535C17.5143 16.7872 20.8298 18.0738 23.1193 20.832C21.4802 22.8638 20.3063 25.2005 19.644 27.7931C19.5317 28.233 19.797 28.6807 20.2372 28.7928C20.3054 28.8103 20.3738 28.8186 20.4413 28.8186C20.8079 28.8186 21.1423 28.5711 21.2371 28.1999C21.8215 25.9125 22.8124 23.872 24.1984 22.0865C25.5845 23.8715 26.5751 25.9125 27.1598 28.2001C27.2548 28.5718 27.589 28.8188 27.9556 28.8188C28.0228 28.8188 28.0915 28.8105 28.1597 28.793C28.5996 28.6807 28.8651 28.2327 28.7528 27.7933C28.0905 25.2008 26.9169 22.8643 25.2778 20.8325C26.7461 19.2879 28.5546 17.9666 30.6986 16.8788C30.7552 16.85 30.8119 16.8227 30.8682 16.7945C33.9367 19.3636 36.0291 22.4872 37.1056 26.1235C37.2115 26.4808 37.5387 26.7123 37.8933 26.7123C37.9703 26.7123 38.0495 26.7013 38.1272 26.6782C38.5625 26.5493 38.8112 26.0918 38.6821 25.6565C37.5983 21.9971 35.4959 18.7447 32.5061 16.0552C35.5244 14.8255 38.0941 14.4979 38.1425 14.4826C39.0994 15.0786 40.0123 15.7397 40.8724 16.4654C44.5068 19.5302 46.8555 23.5107 46.8555 26.6065C46.8558 29.362 44.6064 31.9999 40.5227 34.0339Z" fill="black"/>
</g>
<defs>
<clipPath id="clip0_478_4061">
<rect width="48" height="48" fill="white" transform="translate(0.5)"/>
</clipPath>
</defs>
</svg>
