<svg width="48" height="48" viewBox="0 0 48 48" fill="none" xmlns="http://www.w3.org/2000/svg">
<g clip-path="url(#clip0_478_4068)">
<path d="M46.2577 35.6236C45.8927 35.6039 45.5799 35.5387 45.3013 35.4265C44.5575 35.1265 43.9756 34.5558 43.662 33.8196C43.3483 33.0826 43.3397 32.2668 43.6397 31.5238C43.9216 30.8245 44.4615 30.2589 45.1591 29.935L46.6211 29.2554L45.2397 28.4241C44.1067 27.742 43.6405 26.3614 44.1324 25.1393C44.2284 24.9002 44.3775 24.6629 44.5866 24.4169L45.5927 23.2309L44.0527 23.0132C43.7151 22.9652 43.4117 22.8864 43.1238 22.7698C41.097 21.9531 40.1115 19.6401 40.9274 17.6125C41.1022 17.1772 41.3567 16.7753 41.6841 16.4179L42.3037 15.7418L41.5872 15.1693C40.6034 14.3852 39.5356 13.6987 38.4138 13.1306C36.1686 11.9916 33.7656 11.3438 31.3275 11.1792C29.2048 4.56939 23.1357 0 16.333 0C7.61247 0 0.517578 7.30399 0.517578 16.2825C0.517578 23.4922 5.13067 29.7987 11.8005 31.8512C11.9479 33.0089 12.2007 34.1616 12.5718 35.2954C14.1023 39.9727 17.3623 43.7743 21.7526 45.999C24.3732 47.3281 27.2089 47.9991 30.0643 47.9991C31.4895 47.9991 32.9198 47.8295 34.3304 47.4927C34.3526 47.4944 34.3741 47.5004 34.3964 47.5004C34.5729 47.5004 34.7417 47.4404 34.8865 47.3401C35.1968 47.2561 35.507 47.1773 35.8146 47.0762C40.492 45.5456 44.2935 42.2848 46.5191 37.8946C46.6639 37.6092 46.7873 37.3178 46.9099 37.0273L47.4815 35.6896L46.2577 35.6236ZM2.23153 16.2825C2.23153 15.788 2.25638 15.2996 2.30351 14.8179C3.04908 15.2987 4.42967 16.01 6.40242 16.2757C6.44099 16.2799 6.47955 16.2825 6.51726 16.2825C6.93974 16.2825 7.30739 15.9706 7.36566 15.5404C7.42908 15.0708 7.09914 14.6397 6.63038 14.5763C6.50012 14.5583 6.38528 14.5309 6.26102 14.5086C6.9406 13.8821 7.37337 12.9926 7.37337 11.9976C7.37337 11.5237 6.98945 11.1407 6.5164 11.1407C6.04335 11.1407 5.65942 11.5237 5.65942 11.9976C5.65942 12.9429 4.89072 13.7116 3.94548 13.7116C3.91291 13.7116 3.88549 13.727 3.85378 13.7296C3.18191 13.3902 2.8177 13.0851 2.79884 13.0689C2.74314 13.02 2.67801 12.9943 2.61459 12.9617C4.07488 6.52586 9.66407 1.71395 16.333 1.71395C18.9777 1.71395 21.4972 2.49637 23.6585 3.86324C23.6456 4.30373 23.5745 5.06643 23.2925 5.82828C20.3822 4.86676 20.048 5.08871 19.7532 5.28582C19.3599 5.54891 19.2536 6.08023 19.5158 6.47444C19.7224 6.78381 20.0952 6.91578 20.4371 6.83094C20.731 6.85751 21.4972 7.06575 22.3122 7.31856C22.1219 7.48567 21.9094 7.63564 21.6617 7.75562C20.7353 7.98443 19.3102 8.75057 19.3727 10.318C19.3899 10.779 19.7695 11.1407 20.2271 11.1407C20.2383 11.1407 20.2503 11.1407 20.2623 11.1398C20.7353 11.1218 21.103 10.7225 21.0841 10.2494C21.061 9.67181 22.1142 9.40958 22.1193 9.40872L22.295 9.35131C24.3389 8.42577 25.0339 6.46673 25.2644 5.04072C27.1429 6.63384 28.6332 8.724 29.5185 11.1501C28.9306 11.1689 28.3418 11.2152 27.7548 11.2915C27.5114 11.3223 27.2757 11.3746 27.0349 11.4149C26.6973 11.4723 26.3596 11.5212 26.0237 11.5983C25.6355 11.6857 25.2584 11.7997 24.8805 11.9111C24.7048 11.9634 24.5266 11.9985 24.3518 12.0559C24.332 12.0619 24.314 12.0713 24.2952 12.0773C23.949 12.1922 23.6148 12.331 23.2788 12.4656C23.0449 12.5581 22.8049 12.6404 22.5761 12.7415C22.4724 12.7878 22.3756 12.8452 22.2727 12.8932C19.8149 14.039 17.6691 15.6972 15.95 17.7634C15.2353 16.8558 14.1409 16.2825 12.9437 16.2825C10.8176 16.2825 9.08732 18.0127 9.08732 20.1389C9.08732 22.1279 10.6067 23.751 12.5426 23.955C12.4981 24.093 12.4535 24.231 12.4124 24.3698C12.3044 24.734 12.2187 25.1016 12.1339 25.471C12.0884 25.6698 12.037 25.8661 11.9976 26.0683C11.9111 26.5114 11.8502 26.957 11.7971 27.4043C11.7808 27.5423 11.7577 27.6777 11.7448 27.8165C11.6968 28.3153 11.6762 28.8158 11.6702 29.3171C11.6694 29.4011 11.6582 29.4816 11.6582 29.5656C11.6582 29.6093 11.66 29.6547 11.66 29.6985C11.6608 29.803 11.6548 29.9067 11.6574 30.0112C6.05192 27.9819 2.23153 22.5042 2.23153 16.2825ZM14.8608 19.2134C14.847 19.2339 14.8316 19.2536 14.8171 19.2751C14.7725 19.3402 14.7236 19.4019 14.6808 19.4679C14.4768 19.7798 14.2934 20.1063 14.1075 20.432C14.0783 20.4825 14.0466 20.5314 14.0184 20.582C13.9901 20.6317 13.9584 20.6797 13.9309 20.7294C13.8692 20.8416 13.8067 20.9522 13.7476 21.0653C13.7176 21.1236 13.6807 21.1767 13.6507 21.235C13.5419 21.4492 13.4588 21.6703 13.3593 21.8871C13.3379 21.9334 13.3148 21.978 13.2942 22.0251C13.2574 22.1057 13.2119 22.1836 13.1768 22.2642C13.0962 22.2753 13.02 22.2813 12.9454 22.2813C11.7645 22.2813 10.803 21.3207 10.803 20.1389C10.803 18.9571 11.7645 17.9965 12.9454 17.9965C13.7681 17.9965 14.5111 18.4807 14.8633 19.2117C14.8608 19.2117 14.8608 19.2134 14.8608 19.2134ZM35.3784 45.4111C35.1428 44.0305 33.9473 42.5736 32.1245 41.6498C31.702 41.4339 31.1861 41.6044 30.9727 42.026C30.7594 42.4477 30.9273 42.9636 31.3498 43.1778C32.8358 43.9319 33.6988 45.1017 33.7039 45.8807C29.9324 46.724 26.0194 46.2406 22.5273 44.4718C21.9419 44.1753 21.3858 43.8385 20.8467 43.4812C22.1425 43.0904 23.1666 42.0475 23.6867 41.235C24.5711 39.5768 26.5756 39.7739 26.6733 39.7885C27.1301 39.8407 27.5663 39.5108 27.6245 39.042C27.682 38.5724 27.3477 38.1448 26.8781 38.0874C26.7444 38.0694 23.6208 37.7206 22.2102 40.3686C22.1476 40.4655 20.6531 42.7382 18.7634 41.6044C18.6426 41.5324 18.5115 41.5033 18.3804 41.4947C16.4873 39.6411 15.0484 37.3529 14.2009 34.7623C13.8624 33.7271 13.6301 32.6739 13.4973 31.6172L13.4639 31.2624C13.4279 30.9136 13.403 30.564 13.3893 30.2143C13.3808 30.0241 13.3756 29.839 13.3748 29.6599C13.3739 29.5562 13.3816 29.4534 13.3833 29.3497C13.3893 28.8818 13.4099 28.4173 13.4536 27.9596C13.4665 27.8311 13.487 27.7026 13.5025 27.574C13.5513 27.1644 13.6104 26.7582 13.6884 26.3588C13.7253 26.1737 13.7715 25.9912 13.8144 25.8069C13.8924 25.4701 13.9746 25.1351 14.0723 24.8068C14.0878 24.7554 14.1075 24.7057 14.1229 24.6552C14.8488 24.8086 15.6029 24.7871 16.3279 24.5497C16.591 24.4632 16.8421 24.3535 17.0786 24.2224C17.3468 25.0699 17.9416 25.8129 18.7951 26.2457C18.9194 26.3091 19.0514 26.3383 19.1816 26.3383C19.4944 26.3383 19.7961 26.1669 19.9469 25.8686C20.1611 25.447 19.9923 24.9302 19.5698 24.7169C18.7266 24.2892 18.3889 23.2557 18.8157 22.4133C19.0299 21.9917 18.8611 21.4749 18.4386 21.2615C18.0161 21.0456 17.5002 21.2161 17.2869 21.6377C16.9766 22.2513 16.4462 22.7055 15.794 22.9189C15.4426 23.0346 15.0793 23.0655 14.7219 23.0269C14.7896 22.8692 14.8599 22.7133 14.9319 22.5564C15.0202 22.367 15.1084 22.1785 15.2036 21.9934C15.2593 21.8854 15.3124 21.7766 15.3698 21.6695C15.4572 21.5066 15.5506 21.3498 15.6423 21.1904C15.77 20.9702 15.9011 20.7525 16.0382 20.5391C16.1668 20.3394 16.3005 20.1415 16.4376 19.9469C16.6758 19.6101 16.9158 19.2759 17.1772 18.958C17.1952 18.9357 17.2157 18.9143 17.2337 18.8929C18.5766 17.2783 20.2169 15.9209 22.0705 14.9045C22.1956 14.8359 22.3267 14.7785 22.4544 14.7134C22.7903 14.5403 23.128 14.3706 23.4759 14.2206C23.7356 14.1092 24.0047 14.0158 24.2712 13.9173C24.5129 13.8273 24.7511 13.7296 24.9979 13.6507C25.1582 13.5993 25.3201 13.5599 25.4804 13.5136C25.8163 13.4176 26.154 13.3268 26.4985 13.2514C26.6579 13.2163 26.8173 13.1863 26.9767 13.1554C27.3743 13.08 27.7762 13.0174 28.1833 12.9703C28.2776 12.9592 28.3718 12.9455 28.4669 12.9369C29.0017 12.8855 29.539 12.8546 30.0832 12.8546C30.1843 12.8546 30.2837 12.8623 30.384 12.8692C30.48 12.876 30.5768 12.8829 30.6737 12.8855L31.4869 12.912C31.7749 12.936 32.0628 12.9677 32.349 13.0072C31.8563 14.9131 32.7295 16.9767 34.5549 17.9013C34.6792 17.9648 34.8111 17.9939 34.9414 17.9939C35.2542 17.9939 35.5558 17.8225 35.7067 17.5243C35.9209 17.1026 35.7521 16.5859 35.3296 16.3725C34.1992 15.7992 33.6808 14.4992 34.0407 13.326C35.2722 13.6285 36.4788 14.0724 37.6383 14.6594C38.4061 15.0485 39.1448 15.4984 39.845 16.0006C39.6436 16.3074 39.4739 16.6322 39.3368 16.9724C38.1679 19.8758 39.5785 23.1897 42.4819 24.3595C42.5153 24.3732 42.5496 24.3861 42.583 24.3989C42.5685 24.4323 42.5547 24.4649 42.541 24.4983C41.8983 26.094 42.2488 27.8551 43.3543 29.072C42.7818 29.5588 42.3336 30.1766 42.0483 30.8819C41.5778 32.05 41.5907 33.3312 42.0834 34.4898C42.577 35.6484 43.4914 36.544 44.6595 37.0153C44.7649 37.0581 44.8729 37.0959 44.9826 37.1301C42.9807 41.0765 39.5716 44.0091 35.3784 45.4111Z" fill="black"/>
<path d="M32.4124 24.0214C32.8778 23.1027 32.9583 22.0581 32.6378 21.0785C32.3173 20.099 31.6352 19.3038 30.7165 18.8384C28.82 17.876 26.495 18.6387 25.5335 20.5344C24.572 22.4309 25.333 24.7567 27.2295 25.7174C27.7779 25.9959 28.3718 26.1364 28.97 26.1364C29.3728 26.1364 29.7781 26.0721 30.1723 25.9427C31.151 25.6231 31.9471 24.9409 32.4124 24.0214ZM30.8836 23.2467C30.6248 23.7574 30.1835 24.1362 29.6393 24.3145C29.0951 24.4919 28.5149 24.4473 28.0042 24.1894C26.9509 23.6555 26.5285 22.3632 27.0623 21.3099C27.4394 20.5661 28.1944 20.1367 28.9768 20.1367C29.3016 20.1367 29.6324 20.2113 29.9418 20.3681C30.4525 20.6278 30.8313 21.0691 31.0096 21.6133C31.187 22.1566 31.1424 22.7359 30.8836 23.2467Z" fill="black"/>
<path d="M13.7997 11.9979C15.9259 11.9979 17.6561 10.2677 17.6561 8.14154C17.6561 6.01539 15.9259 4.28516 13.7997 4.28516C11.6736 4.28516 9.94336 6.01539 9.94336 8.14154C9.94336 10.2677 11.6736 11.9979 13.7997 11.9979ZM13.7997 5.99911C14.9807 5.99911 15.9422 6.95977 15.9422 8.14154C15.9422 9.32331 14.9807 10.284 13.7997 10.284C12.6188 10.284 11.6573 9.32331 11.6573 8.14154C11.6573 6.95977 12.6188 5.99911 13.7997 5.99911Z" fill="black"/>
<path d="M25.2921 29.5397C24.3743 29.0735 23.3287 28.9947 22.3492 29.3135C21.3697 29.634 20.5744 30.3161 20.1082 31.2348C19.642 32.1535 19.5623 33.1981 19.8829 34.1776C20.2034 35.1572 20.8855 35.9524 21.8042 36.4178C22.3612 36.7006 22.9551 36.8343 23.5413 36.8343C24.9493 36.8343 26.3084 36.0613 26.9872 34.7218C27.9496 32.8262 27.1886 30.5004 25.2921 29.5397ZM25.4592 33.9471C24.9253 35.0003 23.6338 35.422 22.5798 34.8898C22.069 34.6301 21.6902 34.1888 21.512 33.6446C21.3337 33.1004 21.3783 32.5202 21.6371 32.0103C21.8959 31.4996 22.3372 31.1208 22.8814 30.9426C23.1008 30.8714 23.3262 30.8354 23.5498 30.8354C23.8824 30.8354 24.2114 30.9143 24.5165 31.0677C25.5706 31.6016 25.9931 32.8939 25.4592 33.9471Z" fill="black"/>
<path d="M36.3917 32.2842C35.4739 31.818 34.4275 31.7383 33.4488 32.058C32.4693 32.3785 31.674 33.0606 31.2078 33.9793C30.7417 34.898 30.662 35.9426 30.9825 36.9221C31.303 37.9017 31.9851 38.6969 32.9038 39.1623C33.4608 39.4451 34.0547 39.5788 34.6409 39.5788C36.0489 39.5788 37.4081 38.8058 38.0868 37.4663C39.0492 35.5707 38.2882 33.2449 36.3917 32.2842ZM36.5588 36.6916C36.024 37.7448 34.7334 38.1673 33.6794 37.6343C33.1686 37.3746 32.7898 36.9333 32.6116 36.3891C32.4333 35.8449 32.4779 35.2648 32.7367 34.7549C32.9955 34.2441 33.4368 33.8653 33.981 33.6871C34.2004 33.6159 34.4258 33.5799 34.6495 33.5799C34.982 33.5799 35.311 33.6588 35.6161 33.8122C36.6702 34.3469 37.0935 35.6384 36.5588 36.6916Z" fill="black"/>
</g>
<defs>
<clipPath id="clip0_478_4068">
<rect width="48" height="48" fill="white"/>
</clipPath>
</defs>
</svg>
