<svg width="48" height="48" viewBox="0 0 48 48" fill="none" xmlns="http://www.w3.org/2000/svg">
<g clip-path="url(#clip0_478_4079)">
<path d="M47.1876 15.4491C46.9215 11.2939 44.0513 7.42694 39.0924 4.55146C34.2457 1.7411 27.8235 0.124736 21.0089 0.000135156C20.7006 -0.00502865 20.408 0.138028 20.224 0.385795L0.993156 26.2601C0.844553 26.4601 0.783639 26.7043 0.811083 26.941V47.0481C0.811083 47.6501 1.45025 48.1139 2.00105 47.9754L46.4735 36.7683C46.8984 36.6612 47.1962 36.2791 47.1962 35.841L47.1876 15.4491ZM21.4636 1.92404C27.775 2.1086 33.6778 3.62264 38.133 6.20598C42.2174 8.57435 44.696 11.6176 45.2004 14.8481L4.25668 25.2139L4.12988 25.2459L21.4636 1.92404ZM45.2836 35.0958L2.7237 45.8208V40.4315L45.2836 29.7065V35.0958ZM45.2836 27.7341L2.7237 38.4591V36.1273L45.2836 25.3524V27.7341ZM45.2837 23.3796L2.7237 34.1544V27.5749L4.92664 27.0172L45.2837 16.8242V23.3796Z" fill="black"/>
<path d="M30.817 8.037C32.6155 8.61372 34.2683 9.33579 35.7292 10.1828C35.8802 10.2704 36.0453 10.3121 36.208 10.3121C36.5378 10.3121 36.8588 10.1412 37.0362 9.83544C37.301 9.37854 37.1455 8.7934 36.6886 8.52852C35.109 7.61242 33.3301 6.8345 31.401 6.2158C30.8979 6.05467 30.3596 6.33151 30.1984 6.8344C30.0372 7.3373 30.3141 7.87568 30.817 8.037Z" fill="black"/>
<path d="M22.8936 6.53882C23.9967 6.6202 25.0972 6.75054 26.1647 6.92621C26.2173 6.93491 26.2696 6.93912 26.3212 6.93912C26.781 6.93912 27.1865 6.60643 27.2635 6.13796C27.3492 5.6168 26.9963 5.1248 26.4752 5.03912C25.3516 4.85418 24.1939 4.71715 23.0342 4.63156C22.5089 4.59255 22.0491 4.98806 22.0102 5.51486C21.9714 6.04157 22.3669 6.5 22.8936 6.53882Z" fill="black"/>
<path d="M29.3502 25.2914C29.4268 25.2914 29.5046 25.2821 29.5822 25.2628L33.0363 24.4019C33.5488 24.2741 33.8607 23.7552 33.733 23.2428C33.6052 22.7303 33.0859 22.4185 32.5739 22.5462L29.1198 23.4071C28.6073 23.5349 28.2954 24.0538 28.4232 24.5662C28.5315 25.0011 28.9216 25.2914 29.3502 25.2914Z" fill="black"/>
<path d="M5.97717 31.1173C6.05367 31.1173 6.13151 31.1081 6.20925 31.0888L25.4693 26.2886C25.9818 26.1609 26.2937 25.6419 26.1659 25.1295C26.0382 24.617 25.5187 24.3052 25.0069 24.4329L5.74671 29.233C5.23425 29.3608 4.92241 29.8798 5.05007 30.3921C5.15842 30.827 5.54848 31.1173 5.97717 31.1173Z" fill="black"/>
</g>
<defs>
<clipPath id="clip0_478_4079">
<rect width="48" height="48" fill="white"/>
</clipPath>
</defs>
</svg>
