<svg width="48" height="48" viewBox="0 0 48 48" fill="none" xmlns="http://www.w3.org/2000/svg">
<g clip-path="url(#clip0_478_4053)">
<path d="M47.234 42.893H43.5701V28.2898C43.5701 28.2877 43.5701 25.2249 43.5701 25.2249C43.5701 22.5501 41.3939 20.3738 38.719 20.3738H26.8085V13.4097C26.8085 12.4242 26.0067 11.6224 25.0213 11.6224H24.766V9.32455C24.766 8.90154 24.423 8.55859 24 8.55859C23.577 8.55859 23.234 8.90154 23.234 9.32455V11.6224H22.9787C21.9933 11.6224 21.1915 12.4242 21.1915 13.4097V20.3738H8.6254C5.95057 20.3738 3.77433 22.5501 3.77433 25.2249V42.893H0.765957C0.342945 42.893 0 43.2359 0 43.659C0 44.082 0.342945 44.4249 0.765957 44.4249H1.2095L1.6512 45.9708C1.97617 47.1083 3.15738 47.9994 4.34043 47.9994H43.6596C44.8426 47.9994 46.0238 47.1083 46.3488 45.9709L46.7905 44.4249H47.234C47.6571 44.4249 48 44.082 48 43.659C48 43.2359 47.6571 42.893 47.234 42.893ZM22.7234 13.4097C22.7234 13.2713 22.8403 13.1543 22.9787 13.1543H25.0213C25.1597 13.1543 25.2766 13.2713 25.2766 13.4097V20.3738H22.7234V13.4097ZM8.6254 21.9058H38.719C40.5492 21.9058 42.0382 23.3948 42.0382 25.2249V27.5738C40.653 27.7596 39.8452 28.4359 39.1219 29.0447C38.3506 29.6939 37.7413 30.2067 36.4262 30.2067C35.1111 30.2067 34.5019 29.6939 33.7304 29.0447C32.8829 28.3313 31.9221 27.5227 30.0482 27.5227C28.1745 27.5227 27.214 28.3312 26.3664 29.0447C25.5951 29.6939 24.9859 30.2067 23.6711 30.2067C22.3563 30.2067 21.7472 29.6939 20.9758 29.0447C20.1282 28.3313 19.1676 27.5227 17.2939 27.5227C15.4202 27.5227 14.4596 28.3312 13.6121 29.0447C13.159 29.426 12.7311 29.7863 12.177 29.9966C11.8796 30.1095 11.6829 30.3945 11.6829 30.7127V35.9504C11.6829 36.3728 11.3393 36.7163 10.9169 36.7163C10.4946 36.7163 10.151 36.3728 10.151 35.9504V30.7379C10.1617 30.415 9.96684 30.1144 9.65719 29.9968C9.10294 29.7864 8.67493 29.4261 8.22189 29.0447C7.49872 28.4359 6.6911 27.7596 5.30614 27.5738V25.2249C5.30625 23.3948 6.79517 21.9058 8.6254 21.9058ZM5.30625 29.125C6.12654 29.2857 6.63217 29.7088 7.23544 30.2167C7.63077 30.5494 8.06727 30.9169 8.61927 31.2061V35.9504C8.61927 37.2175 9.65004 38.2482 10.9171 38.2482C12.1842 38.2482 13.215 37.2175 13.215 35.9504L13.2151 31.2061C13.767 30.9169 14.2036 30.5494 14.5988 30.2167C15.3701 29.5675 15.9793 29.0547 17.2941 29.0547C18.609 29.0547 19.2182 29.5675 19.9894 30.2167C20.837 30.9301 21.7976 31.7387 23.6714 31.7387C25.5451 31.7387 26.5057 30.9302 27.3532 30.2167C28.1244 29.5675 28.7336 29.0547 30.0484 29.0547C31.3635 29.0547 31.9728 29.5675 32.7442 30.2168C33.5917 30.9302 34.5524 31.7387 36.4264 31.7387C38.3003 31.7387 39.2609 30.9302 40.1086 30.2168C40.7121 29.7089 41.2178 29.2857 42.0384 29.125V42.893H5.30625V29.125ZM44.8758 45.5501C44.7387 46.0302 44.1589 46.4675 43.6596 46.4675H4.34043C3.84102 46.4675 3.26134 46.0302 3.12419 45.5501L2.80269 44.4249H45.1973L44.8758 45.5501Z" fill="#090909"/>
<path d="M20.9373 9.75803C21.1189 9.75803 21.3012 9.69389 21.4472 9.56348C21.7628 9.28171 21.7901 8.79752 21.5085 8.48194C20.9618 7.86969 20.6608 7.08177 20.6608 6.26312C20.6608 4.46935 22.019 2.59674 24.001 1.611C25.983 2.59663 27.3412 4.46925 27.3412 6.26312C27.3412 7.08177 27.0401 7.86969 26.4935 8.48194C26.2118 8.79742 26.2391 9.28171 26.5547 9.56337C26.8701 9.84504 27.3544 9.81777 27.6361 9.5022C28.4338 8.60889 28.873 7.45863 28.873 6.26312C28.873 3.78805 26.9957 1.23885 24.3077 0.0640723C24.1121 -0.0214085 23.8898 -0.0213064 23.6942 0.0640723C21.0062 1.23885 19.1289 3.78795 19.1289 6.26302C19.1289 7.45852 19.5682 8.60879 20.3658 9.5021C20.517 9.67173 20.7267 9.75813 20.9373 9.75803Z" fill="#090909"/>
</g>
<defs>
<clipPath id="clip0_478_4053">
<rect width="48" height="48" fill="white"/>
</clipPath>
</defs>
</svg>
