<svg width="24" height="24" viewBox="0 0 24 24" fill="none" xmlns="http://www.w3.org/2000/svg">
<g id="reviews_FILL0_wght400_GRAD0_opsz48 1">
<path id="Vector" d="M9.075 14.25L12 12.475L14.925 14.25L14.15 10.925L16.75 8.675L13.325 8.4L12 5.25L10.675 8.4L7.25 8.675L9.85 10.925L9.075 14.25ZM2 22V3.5C2 3.1 2.15 2.75 2.45 2.45C2.75 2.15 3.1 2 3.5 2H20.5C20.9 2 21.25 2.15 21.55 2.45C21.85 2.75 22 3.1 22 3.5V16.5C22 16.9 21.85 17.25 21.55 17.55C21.25 17.85 20.9 18 20.5 18H6L2 22ZM5.35 16.5H20.5V3.5H3.5V18.5L5.35 16.5Z" fill="#090909"/>
</g>
</svg>
